<?xml version="1.0" encoding="UTF-8"?>
<svg xmlns="http://www.w3.org/2000/svg" xmlns:xlink="http://www.w3.org/1999/xlink" width="50px" height="50px" viewBox="0 0 50 50" version="1.1">
<g id="surface1">
<path style=" stroke:none;fill-rule:nonzero;fill:rgb(99.607843%,74.901961%,6.27451%);fill-opacity:1;" d="M 38.964844 24.757812 L 35.5 24.757812 C 35.578125 25.769531 35.65625 26.796875 35.65625 27.820312 C 35.703125 27.871094 35.742188 27.929688 35.773438 27.988281 C 35.773438 27.988281 35.773438 27.988281 35.78125 27.988281 C 35.851562 28.015625 35.9375 28.035156 36.015625 28.054688 C 36.296875 28.125 36.59375 28.171875 36.882812 28.203125 C 37.335938 28.25 38.007812 28.320312 38.300781 28.210938 C 38.945312 27.96875 39.121094 27.519531 39.132812 26.863281 C 39.140625 26.257812 39.140625 25.644531 39.148438 25.039062 C 39.148438 24.929688 39.148438 24.835938 39.160156 24.726562 C 39.09375 24.746094 39.03125 24.757812 38.964844 24.757812 Z M 39.082031 22.960938 C 39.023438 22.480469 38.9375 21.789062 38.515625 21.476562 C 38.574219 21.523438 38.320312 21.4375 38.25 21.425781 C 38.125 21.40625 38.007812 21.386719 37.882812 21.375 C 37.570312 21.359375 37.246094 21.359375 36.933594 21.386719 C 36.570312 21.425781 35.8125 21.453125 35.59375 21.828125 C 35.539062 21.933594 35.449219 22.011719 35.359375 22.050781 C 35.359375 22.597656 35.390625 23.144531 35.421875 23.691406 L 38.875 23.691406 C 38.976562 23.691406 39.0625 23.710938 39.140625 23.75 C 39.132812 23.484375 39.109375 23.222656 39.082031 22.960938 Z M 34.5 25.9375 C 33.359375 25.9375 32.21875 25.9375 31.085938 26.066406 C 29.179688 26.269531 27.207031 26.210938 25.292969 26.222656 C 23.328125 26.242188 21.359375 26.230469 19.394531 26.230469 C 18.496094 26.230469 17.597656 26.25 16.710938 26.230469 C 16.398438 26.222656 16.023438 26.242188 15.710938 26.144531 C 15.710938 26.40625 15.722656 26.671875 15.703125 26.925781 C 19.277344 26.925781 22.851562 26.945312 26.425781 26.925781 C 27.414062 26.914062 28.398438 26.90625 29.386719 26.855469 C 30.078125 26.828125 30.753906 26.769531 31.457031 26.816406 C 32.0625 26.867188 32.65625 26.933594 33.261719 26.933594 C 33.664062 26.933594 34.1875 26.972656 34.5625 26.769531 C 34.53125 26.484375 34.523438 26.210938 34.5 25.9375 Z M 14.460938 24.617188 L 10.996094 24.617188 C 11.074219 25.632812 11.152344 26.660156 11.152344 27.6875 C 11.199219 27.734375 11.242188 27.792969 11.269531 27.851562 C 11.269531 27.851562 11.269531 27.851562 11.277344 27.851562 C 11.347656 27.882812 11.433594 27.898438 11.515625 27.917969 C 11.796875 27.988281 12.089844 28.035156 12.382812 28.066406 C 12.832031 28.113281 13.507812 28.183594 13.800781 28.078125 C 14.074219 27.96875 14.269531 27.832031 14.394531 27.648438 C 14.289062 27.390625 14.355469 27.070312 14.621094 26.964844 C 14.628906 26.882812 14.628906 26.816406 14.628906 26.730469 C 14.640625 26.125 14.640625 25.507812 14.648438 24.902344 C 14.648438 24.796875 14.648438 24.699219 14.65625 24.589844 C 14.589844 24.609375 14.53125 24.617188 14.460938 24.617188 Z M 14.460938 24.617188 "/>
<path style=" stroke:none;fill-rule:nonzero;fill:rgb(7.058824%,44.705882%,45.490196%);fill-opacity:1;" d="M 45.058594 19.921875 C 44.949219 18.59375 44.648438 16.914062 43.386719 16.179688 C 42.539062 15.683594 41.601562 15.664062 40.632812 15.652344 C 39.21875 15.652344 37.8125 15.722656 36.398438 15.808594 C 33.585938 15.984375 30.789062 16.121094 27.976562 16.160156 C 24.824219 16.210938 21.671875 16.160156 18.523438 16.210938 C 15.578125 16.25 12.625 16.414062 9.6875 16.230469 C 7.878906 16.113281 4.714844 15.605469 4.472656 18.144531 C 4.375 19.1875 4.597656 20.222656 4.597656 21.257812 C 4.597656 21.894531 4.539062 22.527344 4.453125 23.152344 C 4.363281 23.828125 4.257812 24.53125 4.402344 25.214844 C 4.421875 25.292969 4.421875 25.371094 4.414062 25.4375 C 6.269531 25.421875 8.132812 25.3125 9.988281 25.304688 C 9.910156 24.179688 9.8125 23.046875 9.8125 21.925781 C 9.8125 21.691406 9.929688 21.535156 10.085938 21.445312 C 10.085938 21.367188 10.117188 21.289062 10.15625 21.210938 C 10.574219 20.476562 11.484375 20.265625 12.265625 20.1875 C 12.976562 20.117188 14.03125 20.039062 14.65625 20.460938 C 15.34375 20.929688 15.566406 21.855469 15.664062 22.617188 C 15.773438 23.417969 15.753906 24.230469 15.734375 25.039062 C 15.828125 25.039062 15.929688 25.050781 16.023438 25.097656 C 16.191406 25.207031 16.59375 25.15625 16.789062 25.15625 C 17.15625 25.15625 17.519531 25.15625 17.890625 25.15625 L 20.59375 25.15625 C 22.390625 25.15625 24.199219 25.15625 25.996094 25.136719 C 28.816406 25.109375 31.628906 24.882812 34.453125 24.863281 C 34.382812 23.9375 34.316406 23 34.316406 22.070312 C 34.316406 21.835938 34.433594 21.679688 34.589844 21.59375 C 34.589844 21.515625 34.617188 21.4375 34.65625 21.359375 C 35.078125 20.625 35.984375 20.410156 36.765625 20.332031 C 37.480469 20.265625 38.535156 20.1875 39.160156 20.605469 C 39.84375 21.074219 40.070312 22.003906 40.164062 22.765625 C 40.242188 23.410156 40.253906 24.0625 40.242188 24.71875 C 41.828125 24.707031 43.398438 24.621094 44.96875 24.589844 C 45.019531 23.039062 45.175781 21.476562 45.058594 19.921875 Z M 45.058594 19.921875 "/>
<path style=" stroke:none;fill-rule:nonzero;fill:rgb(73.72549%,73.72549%,73.72549%);fill-opacity:1;" d="M 36.152344 9.617188 C 36.046875 8.828125 35.890625 7.96875 35.382812 7.324219 C 34.96875 6.796875 34.375 6.609375 33.742188 6.582031 C 33.875 7.246094 33.847656 7.941406 33.847656 8.625 C 34.773438 9.0625 35.15625 10.292969 35.3125 11.261719 C 35.5 12.433594 35.46875 13.605469 35.460938 14.785156 C 35.742188 14.765625 36.023438 14.757812 36.300781 14.734375 C 36.414062 14.726562 36.53125 14.726562 36.652344 14.71875 C 36.164062 13.105469 36.367188 11.28125 36.152344 9.617188 Z M 36.152344 9.617188 "/>
<path style=" stroke:none;fill-rule:nonzero;fill:rgb(99.607843%,74.901961%,6.27451%);fill-opacity:1;" d="M 32.53125 6.257812 C 32.167969 5.515625 31.269531 5.449219 30.539062 5.449219 C 29.699219 5.449219 28.867188 5.566406 28.039062 5.574219 C 26.855469 5.585938 25.664062 5.574219 24.472656 5.574219 C 23.085938 5.574219 21.710938 5.488281 20.324219 5.5 C 19.628906 5.5 18.914062 5.515625 18.234375 5.632812 C 17.980469 5.671875 17.726562 5.734375 17.492188 5.828125 C 17.421875 5.859375 17.363281 5.890625 17.296875 5.9375 C 17.324219 5.917969 17.257812 6.007812 17.277344 5.957031 C 17.265625 5.976562 17.257812 5.996094 17.246094 6.015625 C 17.21875 6.085938 17.179688 6.132812 17.140625 6.179688 C 17.128906 6.21875 17.121094 6.269531 17.101562 6.308594 C 17.167969 6.144531 17.089844 6.398438 17.082031 6.445312 C 17.0625 6.554688 17.050781 6.652344 17.042969 6.757812 C 17.023438 7.011719 17.003906 7.265625 17.003906 7.511719 C 17.003906 7.8125 17.003906 8.125 17.050781 8.429688 C 17.050781 8.4375 17.050781 8.449219 17.050781 8.457031 C 17.167969 8.488281 17.277344 8.554688 17.34375 8.703125 C 17.6875 9.347656 18.429688 9.5625 19.101562 9.679688 C 19.941406 9.824219 20.800781 9.84375 21.648438 9.824219 C 22.832031 9.804688 24.003906 9.796875 25.1875 9.796875 C 26.71875 9.804688 28.261719 9.785156 29.785156 9.628906 C 30.449219 9.5625 31.125 9.484375 31.757812 9.277344 C 31.984375 9.210938 32.167969 9.140625 32.335938 9.035156 C 32.441406 8.964844 32.394531 9.023438 32.480469 8.898438 C 32.453125 8.945312 32.480469 8.878906 32.480469 8.886719 C 32.519531 8.703125 32.636719 8.585938 32.765625 8.515625 C 32.804688 7.773438 32.859375 6.941406 32.53125 6.257812 Z M 32.53125 6.257812 "/>
<path style=" stroke:none;fill-rule:nonzero;fill:rgb(73.72549%,73.72549%,73.72549%);fill-opacity:1;" d="M 15.976562 6.445312 C 14.726562 6.523438 13.59375 7.441406 13 8.507812 C 12.9375 8.613281 12.917969 8.691406 12.910156 8.703125 C 12.871094 8.835938 12.832031 8.976562 12.804688 9.121094 C 12.703125 9.53125 12.625 9.941406 12.558594 10.359375 C 12.382812 11.375 12.246094 12.414062 12.167969 13.4375 C 12.140625 13.808594 12.117188 14.1875 12.128906 14.570312 C 12.128906 14.667969 12.136719 14.773438 12.148438 14.871094 C 12.253906 14.960938 12.3125 15.097656 12.3125 15.234375 C 13.039062 15.234375 13.75 15.234375 14.472656 15.222656 C 14.441406 13.828125 14.277344 12.429688 14.367188 11.023438 C 14.421875 9.929688 14.550781 7.832031 15.945312 7.597656 C 15.9375 7.234375 15.929688 6.828125 15.976562 6.445312 Z M 15.976562 6.445312 "/>
<path style=" stroke:none;fill-rule:nonzero;fill:rgb(99.607843%,74.901961%,6.27451%);fill-opacity:1;" d="M 10.03125 26.378906 C 8.4375 26.386719 6.84375 26.476562 5.253906 26.503906 C 5.527344 26.808594 5.761719 27.140625 5.957031 27.511719 C 7.304688 27.539062 8.789062 27.6875 10.070312 27.265625 C 10.058594 26.964844 10.046875 26.671875 10.03125 26.378906 Z M 10.03125 26.378906 "/>
<path style=" stroke:none;fill-rule:nonzero;fill:rgb(7.058824%,44.705882%,45.490196%);fill-opacity:1;" d="M 41.894531 27.84375 C 41.875 27.960938 41.828125 28.078125 41.726562 28.15625 C 41.726562 28.164062 41.71875 28.183594 41.71875 28.203125 C 41.679688 28.359375 41.660156 28.515625 41.640625 28.679688 C 41.59375 29.148438 41.570312 29.617188 41.5625 30.097656 C 41.542969 31.269531 41.5625 32.441406 41.59375 33.613281 C 41.660156 36.492188 41.816406 39.421875 41.542969 42.296875 C 41.71875 42.296875 41.894531 42.296875 42.070312 42.296875 C 42.070312 42.160156 42.078125 42.03125 42.078125 41.914062 C 42.117188 41.191406 42.207031 40.480469 42.304688 39.757812 C 42.5 38.328125 42.78125 36.90625 42.898438 35.476562 C 42.898438 35.460938 42.898438 35.449219 42.898438 35.4375 C 42.898438 35.371094 42.910156 35.304688 42.910156 35.226562 C 42.921875 35.011719 42.929688 34.804688 42.949219 34.589844 C 42.976562 34.140625 43.007812 33.703125 43.046875 33.253906 C 43.132812 32.246094 43.242188 31.242188 43.4375 30.246094 C 43.59375 29.464844 43.78125 28.632812 44.082031 27.84375 Z M 41.894531 27.84375 "/>
<path style=" stroke:none;fill-rule:nonzero;fill:rgb(73.72549%,73.72549%,73.72549%);fill-opacity:1;" d="M 40.488281 33.007812 C 40.46875 31.789062 40.4375 30.546875 40.507812 29.328125 C 40.527344 28.945312 40.507812 28.320312 40.671875 27.84375 L 40.085938 27.84375 C 40.078125 27.84375 40.070312 27.84375 40.058594 27.84375 C 40.039062 27.890625 40.03125 27.941406 40.007812 27.988281 C 39.726562 28.757812 38.914062 29.308594 38.09375 29.335938 C 37.507812 29.355469 34.597656 29.316406 34.679688 28.242188 C 34.609375 28.164062 34.570312 28.058594 34.570312 27.929688 C 34.570312 27.921875 34.570312 27.921875 34.570312 27.910156 C 34.042969 28.066406 33.425781 28.058594 32.839844 28.007812 C 32.839844 28.164062 32.742188 28.320312 32.617188 28.417969 C 32.617188 28.429688 32.617188 28.429688 32.617188 28.4375 C 32.605469 28.644531 32.617188 28.859375 32.617188 29.0625 C 32.625 29.472656 32.65625 29.882812 32.675781 30.292969 C 32.726562 31.738281 32.761719 33.175781 32.882812 34.621094 C 33.078125 37.042969 33.261719 39.472656 33.261719 41.90625 C 33.261719 42.0625 33.210938 42.179688 33.125 42.273438 C 35.46875 42.285156 37.804688 42.296875 40.148438 42.296875 C 40.214844 42.1875 40.332031 42.101562 40.46875 42.0625 C 40.644531 40.089844 40.554688 38.105469 40.539062 36.132812 C 40.539062 35.085938 40.507812 34.054688 40.488281 33.007812 Z M 40.488281 33.007812 "/>
<path style=" stroke:none;fill-rule:nonzero;fill:rgb(99.607843%,74.901961%,6.27451%);fill-opacity:1;" d="M 40.265625 25.792969 C 40.253906 25.792969 40.253906 25.792969 40.242188 25.792969 L 40.195312 25.792969 C 40.195312 26.113281 40.214844 26.445312 40.207031 26.769531 L 44.570312 26.769531 C 44.8125 26.359375 45.109375 25.976562 45.460938 25.644531 C 43.730469 25.671875 42 25.78125 40.265625 25.792969 Z M 40.265625 25.792969 "/>
<path style=" stroke:none;fill-rule:nonzero;fill:rgb(73.72549%,73.72549%,73.72549%);fill-opacity:1;" d="M 16.28125 37.949219 C 16.242188 36.5625 16.257812 35.175781 16.199219 33.789062 C 16.140625 32.429688 16.121094 31.023438 15.917969 29.6875 C 15.839844 29.199219 15.613281 28.4375 15.878906 27.988281 C 15.742188 27.988281 15.59375 27.988281 15.457031 27.988281 C 15.136719 28.683594 14.375 29.160156 13.601562 29.191406 C 13.066406 29.210938 10.566406 29.171875 10.222656 28.339844 C 10.195312 28.351562 10.15625 28.359375 10.125 28.371094 C 10.164062 32.929688 10.945312 37.453125 10.996094 42.011719 C 12.792969 42.023438 14.578125 42.042969 16.367188 42.0625 C 16.367188 40.695312 16.320312 39.316406 16.28125 37.949219 Z M 16.28125 37.949219 "/>
<path style=" stroke:none;fill-rule:nonzero;fill:rgb(7.058824%,44.705882%,45.490196%);fill-opacity:1;" d="M 32.195312 41.992188 C 32.1875 39.121094 31.894531 36.257812 31.71875 33.390625 C 31.632812 32.050781 31.609375 30.710938 31.5625 29.375 C 31.542969 28.945312 31.484375 28.4375 31.59375 28.007812 C 31.601562 27.96875 31.609375 27.929688 31.628906 27.890625 C 31.621094 27.910156 31.621094 27.910156 31.628906 27.890625 C 30.058594 27.773438 28.457031 27.957031 26.875 27.976562 C 23.574219 28.007812 20.273438 27.988281 16.972656 27.988281 C 17.03125 28.183594 16.980469 28.425781 16.828125 28.574219 C 16.828125 28.585938 16.828125 28.585938 16.828125 28.59375 C 16.835938 28.699219 16.84375 28.808594 16.867188 28.914062 C 16.894531 29.109375 16.945312 29.296875 16.972656 29.492188 C 17.050781 29.980469 17.0625 30.476562 17.101562 30.964844 C 17.195312 32.234375 17.285156 33.507812 17.304688 34.785156 C 17.335938 37.148438 17.441406 39.5 17.453125 41.867188 C 17.453125 41.875 17.453125 41.894531 17.453125 41.90625 L 17.453125 42.070312 C 20.203125 42.109375 22.960938 42.15625 25.710938 42.195312 C 27.898438 42.226562 30.085938 42.257812 32.273438 42.265625 C 32.226562 42.195312 32.195312 42.109375 32.195312 41.992188 Z M 9.054688 28.554688 C 8.183594 28.640625 7.285156 28.601562 6.414062 28.585938 C 6.855469 29.890625 6.984375 31.375 7.15625 32.648438 C 7.382812 34.328125 7.675781 36.015625 8.039062 37.675781 C 8.222656 38.554688 8.40625 39.433594 8.652344 40.292969 C 8.808594 40.851562 8.984375 41.425781 9.0625 42 C 9.355469 42 9.640625 42 9.929688 42 C 9.863281 37.507812 9.101562 33.054688 9.054688 28.554688 Z M 9.054688 28.554688 "/>
<path style=" stroke:none;fill-rule:nonzero;fill:rgb(99.607843%,74.901961%,6.27451%);fill-opacity:1;" d="M 14.582031 22.8125 C 14.523438 22.335938 14.433594 21.640625 14.015625 21.328125 C 14.070312 21.375 13.820312 21.289062 13.75 21.28125 C 13.625 21.257812 13.507812 21.242188 13.378906 21.230469 C 13.066406 21.210938 12.742188 21.210938 12.429688 21.242188 C 12.070312 21.28125 11.308594 21.308594 11.09375 21.679688 C 11.035156 21.789062 10.945312 21.867188 10.859375 21.90625 C 10.859375 22.453125 10.886719 23 10.917969 23.546875 L 14.375 23.546875 C 14.472656 23.546875 14.5625 23.5625 14.636719 23.601562 C 14.628906 23.339844 14.609375 23.078125 14.582031 22.8125 Z M 14.582031 22.8125 "/>
<path style=" stroke:none;fill-rule:nonzero;fill:rgb(0%,0%,0%);fill-opacity:1;" d="M 46.59375 25.65625 C 46.5625 25.449219 46.464844 25.273438 46.445312 25.070312 C 46.425781 24.8125 46.242188 24.640625 46.007812 24.589844 C 46.140625 21.570312 46.90625 17.109375 43.859375 15.222656 C 42.96875 14.675781 41.914062 14.617188 40.898438 14.597656 C 39.851562 14.578125 38.808594 14.609375 37.765625 14.667969 C 37.46875 13.867188 37.441406 12.976562 37.390625 12.136719 C 37.332031 11.09375 37.304688 10.039062 37.128906 9.003906 C 36.960938 8.046875 36.648438 7.128906 35.976562 6.40625 C 35.304688 5.691406 34.277344 5.488281 33.328125 5.527344 C 32.921875 4.910156 32.253906 4.570312 31.492188 4.453125 C 30.496094 4.296875 29.472656 4.421875 28.476562 4.492188 C 27.234375 4.578125 25.984375 4.519531 24.746094 4.519531 C 23.164062 4.519531 21.589844 4.421875 20.007812 4.441406 C 19.21875 4.453125 18.429688 4.5 17.648438 4.667969 C 17.175781 4.765625 16.632812 4.96875 16.359375 5.398438 C 14.796875 5.359375 13.289062 6.191406 12.382812 7.449219 C 11.804688 8.25 11.660156 9.207031 11.492188 10.164062 C 11.289062 11.347656 11.140625 12.546875 11.074219 13.75 C 11.054688 14.070312 10.976562 14.734375 11.101562 15.234375 C 10.390625 15.214844 9.679688 15.183594 8.964844 15.136719 C 6.894531 14.988281 4.21875 14.980469 3.507812 17.382812 C 3.203125 18.386719 3.378906 19.511719 3.46875 20.535156 C 3.566406 21.757812 3.332031 22.929688 3.261719 24.140625 C 3.234375 24.636719 3.273438 25.105469 3.378906 25.59375 C 3.410156 25.710938 3.457031 25.800781 3.527344 25.859375 C 3.496094 26.042969 3.546875 26.25 3.683594 26.386719 C 3.703125 26.542969 3.78125 26.679688 3.945312 26.785156 C 4.894531 27.371094 5.292969 28.515625 5.566406 29.539062 C 5.878906 30.703125 5.988281 31.914062 6.152344 33.105469 C 6.378906 34.695312 6.671875 36.296875 7.003906 37.871094 C 7.179688 38.710938 7.34375 39.550781 7.570312 40.378906 C 7.773438 41.113281 8.027344 41.84375 8.046875 42.617188 C 8.058594 43.015625 8.410156 43.152344 8.710938 43.074219 C 8.769531 43.09375 8.839844 43.113281 8.917969 43.113281 C 14.550781 43.113281 20.1875 43.230469 25.8125 43.320312 C 30.839844 43.398438 35.859375 43.40625 40.890625 43.40625 C 40.9375 43.417969 40.988281 43.417969 41.035156 43.40625 C 41.609375 43.40625 42.179688 43.40625 42.753906 43.40625 C 43.117188 43.40625 43.273438 43.105469 43.222656 42.820312 C 43.253906 42.683594 43.242188 42.539062 43.15625 42.410156 C 43.144531 42.351562 43.144531 42.285156 43.144531 42.226562 C 43.144531 41.992188 43.15625 41.785156 43.175781 41.5625 C 43.234375 40.867188 43.332031 40.175781 43.429688 39.480469 C 43.605469 38.210938 43.847656 36.941406 43.957031 35.664062 C 44.09375 34.050781 44.152344 32.449219 44.425781 30.847656 C 44.679688 29.335938 45.070312 27.304688 46.378906 26.308594 C 46.523438 26.199219 46.582031 26.0625 46.59375 25.917969 C 46.601562 25.828125 46.609375 25.742188 46.59375 25.65625 Z M 35.382812 7.324219 C 35.890625 7.96875 36.046875 8.828125 36.152344 9.617188 C 36.367188 11.28125 36.164062 13.09375 36.660156 14.714844 C 36.542969 14.726562 36.425781 14.726562 36.308594 14.734375 C 36.023438 14.753906 35.742188 14.765625 35.46875 14.785156 C 35.476562 13.601562 35.507812 12.429688 35.320312 11.257812 C 35.164062 10.292969 34.792969 9.0625 33.855469 8.621094 C 33.855469 7.9375 33.886719 7.253906 33.75 6.582031 C 34.375 6.609375 34.96875 6.804688 35.382812 7.324219 Z M 17.039062 6.746094 C 17.050781 6.640625 17.0625 6.542969 17.078125 6.433594 C 17.089844 6.375 17.167969 6.132812 17.101562 6.296875 C 17.117188 6.257812 17.128906 6.210938 17.140625 6.171875 C 17.179688 6.132812 17.21875 6.074219 17.246094 6.003906 C 17.257812 5.984375 17.265625 5.964844 17.273438 5.945312 C 17.257812 5.984375 17.335938 5.90625 17.296875 5.925781 C 17.363281 5.878906 17.421875 5.847656 17.492188 5.820312 C 17.726562 5.722656 17.976562 5.664062 18.234375 5.625 C 18.925781 5.507812 19.628906 5.496094 20.320312 5.488281 C 21.710938 5.476562 23.085938 5.566406 24.472656 5.566406 C 25.65625 5.566406 26.84375 5.574219 28.039062 5.566406 C 28.878906 5.554688 29.707031 5.4375 30.539062 5.4375 C 31.269531 5.4375 32.167969 5.507812 32.53125 6.25 C 32.859375 6.933594 32.804688 7.761719 32.785156 8.515625 C 32.648438 8.574219 32.539062 8.691406 32.5 8.886719 C 32.5 8.875 32.472656 8.933594 32.5 8.894531 C 32.414062 9.011719 32.453125 8.953125 32.355469 9.03125 C 32.1875 9.148438 32.003906 9.207031 31.777344 9.277344 C 31.144531 9.480469 30.46875 9.5625 29.804688 9.628906 C 28.28125 9.785156 26.738281 9.804688 25.207031 9.792969 C 24.023438 9.785156 22.851562 9.792969 21.671875 9.824219 C 20.820312 9.84375 19.960938 9.824219 19.121094 9.675781 C 18.449219 9.558594 17.707031 9.335938 17.363281 8.699219 C 17.285156 8.554688 17.179688 8.484375 17.070312 8.457031 C 17.070312 8.445312 17.070312 8.4375 17.070312 8.425781 C 17.03125 8.125 17.023438 7.8125 17.023438 7.507812 C 17.011719 7.257812 17.023438 7 17.039062 6.746094 Z M 16.40625 9.539062 C 16.503906 9.617188 16.609375 9.65625 16.71875 9.667969 C 17.726562 10.890625 19.863281 10.890625 21.289062 10.898438 C 22.65625 10.898438 24.015625 10.859375 25.378906 10.867188 C 27.050781 10.878906 28.730469 10.859375 30.378906 10.644531 C 31.230469 10.539062 32.726562 10.382812 33.320312 9.578125 C 34.09375 9.882812 34.226562 11.152344 34.304688 11.855469 C 34.421875 12.851562 34.394531 13.847656 34.382812 14.84375 C 31.90625 14.980469 29.421875 15.078125 26.933594 15.097656 C 23.78125 15.136719 20.625 15.085938 17.480469 15.148438 C 16.828125 15.15625 16.179688 15.175781 15.527344 15.1875 C 15.507812 14.003906 15.382812 12.824219 15.390625 11.640625 C 15.398438 10.929688 15.449219 10.203125 15.617188 9.511719 C 15.664062 9.289062 15.773438 8.992188 15.878906 8.847656 C 15.929688 8.78125 15.957031 8.742188 15.984375 8.710938 C 16.054688 9.042969 16.171875 9.34375 16.40625 9.539062 Z M 12.167969 13.4375 C 12.246094 12.402344 12.382812 11.375 12.558594 10.359375 C 12.625 9.953125 12.703125 9.53125 12.804688 9.121094 C 12.832031 8.984375 12.871094 8.835938 12.910156 8.703125 C 12.910156 8.691406 12.929688 8.613281 13 8.507812 C 13.59375 7.453125 14.726562 6.53125 15.976562 6.445312 C 15.929688 6.828125 15.929688 7.234375 15.9375 7.609375 C 14.550781 7.84375 14.421875 9.941406 14.355469 11.035156 C 14.277344 12.441406 14.433594 13.828125 14.460938 15.234375 C 13.738281 15.242188 13.027344 15.253906 12.304688 15.242188 C 12.304688 15.105469 12.257812 14.96875 12.140625 14.882812 C 12.128906 14.785156 12.117188 14.679688 12.117188 14.582031 C 12.117188 14.191406 12.140625 13.808594 12.167969 13.4375 Z M 4.382812 25.449219 C 4.394531 25.382812 4.394531 25.304688 4.375 25.226562 C 4.226562 24.550781 4.335938 23.847656 4.421875 23.164062 C 4.511719 22.53125 4.5625 21.90625 4.570312 21.269531 C 4.578125 20.234375 4.34375 19.199219 4.445312 18.15625 C 4.6875 15.617188 7.851562 16.125 9.65625 16.242188 C 12.609375 16.425781 15.558594 16.257812 18.496094 16.222656 C 21.648438 16.179688 24.804688 16.222656 27.949219 16.171875 C 30.761719 16.125 33.5625 15.996094 36.367188 15.820312 C 37.78125 15.734375 39.1875 15.664062 40.605469 15.664062 C 41.570312 15.664062 42.507812 15.695312 43.359375 16.191406 C 44.617188 16.925781 44.921875 18.605469 45.03125 19.933594 C 45.144531 21.484375 44.992188 23.039062 44.921875 24.589844 C 43.347656 24.628906 41.777344 24.71875 40.195312 24.71875 C 40.203125 24.0625 40.195312 23.40625 40.117188 22.765625 C 40.019531 21.992188 39.792969 21.0625 39.109375 20.605469 C 38.484375 20.1875 37.429688 20.265625 36.71875 20.332031 C 35.9375 20.410156 35.027344 20.625 34.609375 21.359375 C 34.558594 21.4375 34.539062 21.523438 34.539062 21.59375 C 34.382812 21.679688 34.265625 21.84375 34.265625 22.070312 C 34.265625 23.007812 34.335938 23.9375 34.402344 24.863281 C 31.582031 24.882812 28.769531 25.097656 25.945312 25.136719 C 24.148438 25.15625 22.34375 25.15625 20.546875 25.15625 L 17.839844 25.15625 C 17.46875 25.15625 17.109375 25.15625 16.738281 25.15625 C 16.53125 25.15625 16.132812 25.207031 15.976562 25.097656 C 15.886719 25.046875 15.78125 25.03125 15.683594 25.039062 C 15.703125 24.226562 15.710938 23.417969 15.613281 22.617188 C 15.515625 21.84375 15.292969 20.917969 14.609375 20.457031 C 13.984375 20.039062 12.929688 20.117188 12.214844 20.183594 C 11.433594 20.261719 10.527344 20.476562 10.105469 21.210938 C 10.058594 21.289062 10.039062 21.375 10.039062 21.445312 C 9.882812 21.53125 9.765625 21.699219 9.765625 21.921875 C 9.773438 23.054688 9.863281 24.179688 9.941406 25.300781 C 8.105469 25.320312 6.25 25.429688 4.382812 25.449219 Z M 38.515625 21.476562 C 38.9375 21.789062 39.023438 22.480469 39.082031 22.960938 C 39.109375 23.222656 39.132812 23.484375 39.140625 23.75 C 39.0625 23.710938 38.976562 23.691406 38.875 23.691406 L 35.421875 23.691406 C 35.390625 23.144531 35.359375 22.597656 35.359375 22.050781 C 35.449219 22.011719 35.539062 21.933594 35.59375 21.824219 C 35.800781 21.453125 36.570312 21.414062 36.933594 21.386719 C 37.246094 21.355469 37.570312 21.355469 37.882812 21.375 C 38.007812 21.386719 38.125 21.40625 38.25 21.425781 C 38.320312 21.4375 38.574219 21.523438 38.515625 21.476562 Z M 38.964844 24.757812 C 39.03125 24.757812 39.09375 24.746094 39.148438 24.726562 C 39.148438 24.835938 39.148438 24.929688 39.140625 25.039062 C 39.128906 25.644531 39.128906 26.257812 39.121094 26.863281 C 39.109375 27.519531 38.9375 27.96875 38.289062 28.210938 C 37.988281 28.328125 37.3125 28.25 36.875 28.203125 C 36.582031 28.171875 36.296875 28.125 36.007812 28.054688 C 35.929688 28.035156 35.839844 28.015625 35.773438 27.988281 C 35.773438 27.988281 35.773438 27.988281 35.761719 27.988281 C 35.734375 27.917969 35.695312 27.871094 35.644531 27.820312 C 35.632812 26.796875 35.554688 25.78125 35.488281 24.753906 L 38.964844 24.753906 Z M 15.703125 26.132812 C 16.007812 26.242188 16.386719 26.21875 16.699219 26.21875 C 17.597656 26.242188 18.496094 26.21875 19.382812 26.21875 C 21.347656 26.21875 23.320312 26.21875 25.28125 26.210938 C 27.195312 26.191406 29.171875 26.25 31.074219 26.054688 C 32.207031 25.9375 33.351562 25.925781 34.492188 25.925781 C 34.511719 26.199219 34.523438 26.484375 34.539062 26.757812 C 34.171875 26.960938 33.640625 26.921875 33.242188 26.921875 C 32.636719 26.921875 32.03125 26.855469 31.433594 26.804688 C 30.742188 26.746094 30.066406 26.804688 29.367188 26.84375 C 28.378906 26.894531 27.390625 26.902344 26.40625 26.914062 C 22.832031 26.933594 19.257812 26.921875 15.683594 26.914062 C 15.710938 26.660156 15.710938 26.398438 15.703125 26.132812 Z M 14.386719 27.636719 C 14.257812 27.820312 14.074219 27.960938 13.789062 28.066406 C 13.488281 28.183594 12.8125 28.105469 12.375 28.054688 C 12.082031 28.027344 11.796875 27.976562 11.503906 27.910156 C 11.425781 27.890625 11.335938 27.871094 11.269531 27.839844 C 11.269531 27.839844 11.269531 27.839844 11.261719 27.839844 C 11.230469 27.773438 11.191406 27.722656 11.140625 27.675781 C 11.132812 26.648438 11.054688 25.632812 10.988281 24.609375 L 14.453125 24.609375 C 14.519531 24.609375 14.582031 24.597656 14.640625 24.578125 C 14.640625 24.6875 14.640625 24.785156 14.628906 24.890625 C 14.621094 25.496094 14.621094 26.113281 14.609375 26.71875 C 14.609375 26.796875 14.609375 26.875 14.601562 26.953125 C 14.34375 27.070312 14.289062 27.382812 14.386719 27.636719 Z M 14.015625 21.328125 C 14.433594 21.640625 14.519531 22.335938 14.582031 22.8125 C 14.609375 23.078125 14.628906 23.339844 14.640625 23.601562 C 14.5625 23.5625 14.472656 23.546875 14.375 23.546875 L 10.917969 23.546875 C 10.890625 23 10.859375 22.453125 10.859375 21.90625 C 10.949219 21.863281 11.035156 21.789062 11.09375 21.679688 C 11.300781 21.308594 12.070312 21.269531 12.433594 21.238281 C 12.746094 21.210938 13.066406 21.210938 13.378906 21.230469 C 13.507812 21.238281 13.625 21.257812 13.75 21.277344 C 13.820312 21.289062 14.070312 21.375 14.015625 21.328125 Z M 9.054688 42 C 8.976562 41.425781 8.808594 40.851562 8.640625 40.292969 C 8.398438 39.433594 8.210938 38.546875 8.027344 37.675781 C 7.664062 36.015625 7.375 34.335938 7.148438 32.648438 C 6.984375 31.375 6.847656 29.902344 6.40625 28.585938 C 7.277344 28.613281 8.175781 28.652344 9.042969 28.554688 C 9.09375 33.046875 9.851562 37.507812 9.914062 42 C 9.640625 42 9.34375 42 9.054688 42 Z M 5.957031 27.507812 C 5.761719 27.148438 5.539062 26.804688 5.253906 26.503906 C 6.84375 26.464844 8.4375 26.386719 10.027344 26.375 C 10.046875 26.667969 10.058594 26.960938 10.070312 27.253906 C 8.789062 27.6875 7.304688 27.539062 5.957031 27.507812 Z M 10.996094 42.011719 C 10.945312 37.453125 10.15625 32.929688 10.125 28.367188 C 10.15625 28.359375 10.195312 28.351562 10.222656 28.339844 C 10.566406 29.179688 13.066406 29.21875 13.601562 29.1875 C 14.367188 29.160156 15.125 28.679688 15.457031 27.988281 C 15.59375 27.988281 15.742188 27.988281 15.878906 27.988281 C 15.625 28.4375 15.847656 29.199219 15.917969 29.6875 C 16.125 31.023438 16.140625 32.441406 16.203125 33.789062 C 16.257812 35.175781 16.242188 36.5625 16.28125 37.949219 C 16.320312 39.316406 16.367188 40.683594 16.375 42.0625 C 14.582031 42.03125 12.792969 42.023438 10.996094 42.011719 Z M 25.710938 42.207031 C 22.960938 42.167969 20.203125 42.117188 17.453125 42.078125 L 17.453125 41.914062 C 17.453125 41.90625 17.453125 41.882812 17.453125 41.875 C 17.441406 39.511719 17.335938 37.15625 17.304688 34.796875 C 17.285156 33.515625 17.199219 32.246094 17.101562 30.976562 C 17.0625 30.488281 17.042969 29.988281 16.972656 29.5 C 16.945312 29.304688 16.90625 29.109375 16.867188 28.925781 C 16.847656 28.816406 16.835938 28.710938 16.828125 28.601562 C 16.828125 28.59375 16.828125 28.59375 16.828125 28.585938 C 16.984375 28.4375 17.03125 28.195312 16.972656 28 C 20.273438 28.007812 23.574219 28.015625 26.875 27.988281 C 28.457031 27.976562 30.058594 27.78125 31.632812 27.898438 C 31.621094 27.917969 31.621094 27.917969 31.632812 27.898438 C 31.621094 27.9375 31.601562 27.976562 31.59375 28.015625 C 31.484375 28.4375 31.542969 28.953125 31.5625 29.382812 C 31.613281 30.722656 31.632812 32.058594 31.71875 33.398438 C 31.90625 36.257812 32.199219 39.121094 32.199219 42 C 32.199219 42.117188 32.226562 42.207031 32.277344 42.285156 C 30.089844 42.257812 27.898438 42.234375 25.710938 42.207031 Z M 40.488281 33.007812 C 40.507812 34.054688 40.539062 35.085938 40.546875 36.132812 C 40.566406 38.105469 40.644531 40.085938 40.480469 42.0625 C 40.351562 42.101562 40.234375 42.1875 40.15625 42.296875 C 37.8125 42.296875 35.480469 42.285156 33.136719 42.273438 C 33.214844 42.1875 33.273438 42.0625 33.273438 41.90625 C 33.261719 39.472656 33.078125 37.039062 32.890625 34.617188 C 32.773438 33.171875 32.734375 31.738281 32.6875 30.292969 C 32.675781 29.882812 32.648438 29.472656 32.625 29.0625 C 32.617188 28.855469 32.617188 28.640625 32.625 28.4375 C 32.625 28.425781 32.625 28.425781 32.625 28.417969 C 32.765625 28.308594 32.851562 28.164062 32.851562 28.007812 C 33.4375 28.054688 34.054688 28.054688 34.578125 27.910156 C 34.578125 27.921875 34.578125 27.921875 34.578125 27.929688 C 34.578125 28.066406 34.617188 28.171875 34.6875 28.242188 C 34.609375 29.304688 37.519531 29.355469 38.105469 29.335938 C 38.917969 29.304688 39.734375 28.757812 40.019531 27.988281 C 40.039062 27.9375 40.058594 27.890625 40.070312 27.839844 C 40.078125 27.839844 40.089844 27.839844 40.097656 27.839844 L 40.683594 27.839844 C 40.519531 28.320312 40.539062 28.953125 40.519531 29.324219 C 40.4375 30.546875 40.46875 31.777344 40.488281 33.007812 Z M 43.417969 30.234375 C 43.222656 31.230469 43.117188 32.234375 43.027344 33.242188 C 42.988281 33.691406 42.960938 34.132812 42.929688 34.578125 C 42.921875 34.796875 42.898438 35 42.890625 35.214844 C 42.890625 35.28125 42.882812 35.351562 42.882812 35.429688 C 42.882812 35.4375 42.882812 35.449219 42.882812 35.46875 C 42.765625 36.90625 42.480469 38.328125 42.285156 39.746094 C 42.1875 40.460938 42.101562 41.179688 42.0625 41.90625 C 42.050781 42.023438 42.050781 42.148438 42.050781 42.285156 C 41.875 42.285156 41.699219 42.285156 41.523438 42.285156 C 41.796875 39.414062 41.640625 36.476562 41.570312 33.601562 C 41.542969 32.429688 41.523438 31.261719 41.542969 30.089844 C 41.554688 29.617188 41.570312 29.140625 41.621094 28.671875 C 41.640625 28.515625 41.660156 28.351562 41.699219 28.195312 C 41.710938 28.175781 41.710938 28.15625 41.710938 28.144531 C 41.804688 28.058594 41.867188 27.949219 41.875 27.832031 L 44.054688 27.832031 C 43.769531 28.625 43.574219 29.453125 43.417969 30.234375 Z M 44.570312 26.769531 L 40.203125 26.769531 C 40.214844 26.445312 40.195312 26.113281 40.195312 25.792969 L 40.242188 25.792969 C 40.253906 25.792969 40.253906 25.792969 40.261719 25.792969 C 42 25.78125 43.730469 25.675781 45.457031 25.65625 C 45.109375 25.976562 44.8125 26.355469 44.570312 26.769531 Z M 44.570312 26.769531 "/>
</g>
</svg>
