<?xml version="1.0" encoding="UTF-8"?>
<svg xmlns="http://www.w3.org/2000/svg" xmlns:xlink="http://www.w3.org/1999/xlink" width="50px" height="50px" viewBox="0 0 50 50" version="1.1">
<g id="surface1">
<path style="fill-rule:nonzero;fill:rgb(98.823529%,91.764706%,16.862745%);fill-opacity:1;stroke-width:2;stroke-linecap:round;stroke-linejoin:round;stroke:rgb(0%,0%,0%);stroke-opacity:1;stroke-miterlimit:4;" d="M 59.000625 36 C 59.000625 48.70125 48.70125 59.000625 36 59.000625 C 23.29875 59.000625 12.999375 48.70125 12.999375 36 C 12.999375 23.29875 23.29875 12.999375 36 12.999375 C 48.70125 12.999375 59.000625 23.29875 59.000625 36 Z M 59.000625 36 " transform="matrix(0.694444,0,0,0.694444,0,0)"/>
<path style="fill:none;stroke-width:2;stroke-linecap:round;stroke-linejoin:round;stroke:rgb(0%,0%,0%);stroke-opacity:1;stroke-miterlimit:4;" d="M 26.184375 27.073125 C 29.086875 25.43625 32.43375 24.5025 36 24.5025 C 39.56625 24.5025 42.913125 25.43625 45.815625 27.073125 " transform="matrix(0.694444,0,0,0.694444,0,0)"/>
<path style=" stroke:none;fill-rule:nonzero;fill:rgb(0%,0%,0%);fill-opacity:1;" d="M 29.167969 28.472656 C 29.167969 27.320312 30.101562 26.390625 31.25 26.390625 C 32.398438 26.390625 33.332031 27.320312 33.332031 28.472656 C 33.332031 29.621094 32.398438 30.554688 31.25 30.554688 C 30.101562 30.554688 29.167969 29.621094 29.167969 28.472656 "/>
<path style=" stroke:none;fill-rule:nonzero;fill:rgb(0%,0%,0%);fill-opacity:1;" d="M 16.667969 28.472656 C 16.667969 27.320312 17.601562 26.390625 18.75 26.390625 C 19.898438 26.390625 20.832031 27.320312 20.832031 28.472656 C 20.832031 29.621094 19.898438 30.554688 18.75 30.554688 C 17.601562 30.554688 16.667969 29.621094 16.667969 28.472656 "/>
</g>
</svg>
