<?xml version="1.0" encoding="UTF-8"?>
<svg xmlns="http://www.w3.org/2000/svg" xmlns:xlink="http://www.w3.org/1999/xlink" width="50px" height="50px" viewBox="0 0 50 50" version="1.1">
<g id="surface1">
<path style=" stroke:none;fill-rule:nonzero;fill:rgb(88.235294%,92.156863%,94.901961%);fill-opacity:1;" d="M 12.476562 26.875 C 10.027344 26.875 6.875 23.722656 6.875 21.25 C 6.875 18.671875 18.671875 2.195312 20.746094 1.875 C 21.878906 1.875 22.574219 2.230469 23.246094 2.574219 C 23.804688 2.855469 24.328125 3.125 25 3.125 L 25.011719 3.125 C 25.675781 3.121094 26.199219 2.855469 26.753906 2.574219 C 27.421875 2.230469 28.121094 1.875 29.269531 1.875 C 31.328125 2.195312 43.125 18.671875 43.125 21.25 C 43.125 23.71875 39.980469 26.867188 37.511719 26.875 L 25.023438 26.410156 Z M 12.476562 26.875 "/>
<path style=" stroke:none;fill-rule:nonzero;fill:rgb(63.921569%,71.764706%,80%);fill-opacity:1;" d="M 24.988281 1.25 L 25 2.5 L 25 3.75 C 25.003906 3.75 25.007812 3.75 25.011719 3.75 C 25.828125 3.746094 26.46875 3.417969 27.035156 3.128906 C 27.644531 2.820312 28.21875 2.527344 29.148438 2.503906 C 31.523438 3.628906 42.351562 18.8125 42.5 21.25 C 42.5 23.398438 39.648438 26.25 37.546875 26.25 L 25.046875 25.785156 L 25 25.78125 L 24.953125 25.785156 L 12.5 26.25 C 10.351562 26.25 7.5 23.398438 7.5 21.257812 C 7.648438 18.8125 18.476562 3.628906 20.851562 2.5 C 21.777344 2.523438 22.355469 2.820312 22.960938 3.128906 C 23.53125 3.421875 24.179688 3.75 25 3.75 L 24.988281 1.25 M 29.269531 1.25 C 27.011719 1.25 26.226562 2.5 25 2.5 C 25.007812 2.5 25.011719 2.5 25.011719 2.5 C 25.011719 2.5 25.007812 2.5 25 2.5 C 24.992188 2.5 24.988281 2.5 24.988281 2.5 C 24.988281 2.5 24.992188 2.5 25 2.5 C 23.773438 2.5 22.988281 1.25 20.730469 1.25 C 18.46875 1.25 6.25 18.417969 6.25 21.25 C 6.25 24.082031 9.660156 27.5 12.5 27.5 L 25 27.03125 L 37.5 27.5 C 40.339844 27.5 43.75 24.082031 43.75 21.25 C 43.75 18.417969 31.53125 1.25 29.269531 1.25 Z M 29.269531 1.25 "/>
<path style=" stroke:none;fill-rule:nonzero;fill:rgb(29.411765%,39.215686%,46.666667%);fill-opacity:1;" d="M 13.125 23.125 L 36.875 23.125 L 36.875 48.125 L 13.125 48.125 Z M 13.125 23.125 "/>
<path style=" stroke:none;fill-rule:nonzero;fill:rgb(21.176471%,25.098039%,30.196078%);fill-opacity:1;" d="M 36.25 23.75 L 36.25 47.5 L 13.75 47.5 L 13.75 23.75 L 36.25 23.75 M 37.5 22.5 L 12.5 22.5 L 12.5 48.75 L 37.5 48.75 Z M 37.5 22.5 "/>
<path style=" stroke:none;fill-rule:nonzero;fill:rgb(60%,78.823529%,61.960784%);fill-opacity:1;" d="M 23.097656 48.125 C 18.894531 45.761719 12.050781 39.414062 11.878906 23.125 L 38.121094 23.125 C 37.949219 39.410156 31.097656 45.757812 26.890625 48.125 Z M 23.097656 48.125 "/>
<path style=" stroke:none;fill-rule:nonzero;fill:rgb(36.862745%,61.176471%,46.27451%);fill-opacity:1;" d="M 37.484375 23.75 C 37.15625 39.074219 30.765625 45.171875 26.722656 47.5 L 23.261719 47.5 C 16.558594 43.652344 12.769531 35.261719 12.515625 23.75 L 37.484375 23.75 M 38.75 22.5 L 11.25 22.5 C 11.25 36.699219 16.351562 45.136719 22.933594 48.75 L 27.050781 48.75 C 33.632812 45.136719 38.75 36.699219 38.75 22.5 Z M 38.75 22.5 "/>
<path style=" stroke:none;fill-rule:nonzero;fill:rgb(100%,93.333333%,63.921569%);fill-opacity:1;" d="M 18.75 29.375 C 16.296875 29.375 14.375 28.003906 14.375 26.25 C 14.375 24.496094 16.296875 23.125 18.75 23.125 C 21.203125 23.125 23.125 24.496094 23.125 26.25 C 23.125 28.003906 21.203125 29.375 18.75 29.375 Z M 18.75 29.375 "/>
<path style=" stroke:none;fill-rule:nonzero;fill:rgb(21.568627%,46.666667%,30.588235%);fill-opacity:1;" d="M 18.75 23.75 C 20.820312 23.75 22.5 24.867188 22.5 26.25 C 22.5 27.632812 20.820312 28.75 18.75 28.75 C 16.679688 28.75 15 27.632812 15 26.25 C 15 24.867188 16.679688 23.75 18.75 23.75 M 18.75 22.5 C 15.945312 22.5 13.75 24.148438 13.75 26.25 C 13.75 28.351562 15.945312 30 18.75 30 C 21.554688 30 23.75 28.351562 23.75 26.25 C 23.75 24.148438 21.554688 22.5 18.75 22.5 Z M 36.25 26.25 C 36.25 26.25 32.441406 30 30 30 C 27.558594 30 26.25 28.230469 26.25 26.25 C 26.25 24.269531 27.558594 23.214844 30 23.214844 C 32.441406 23.214844 36.25 26.25 36.25 26.25 Z M 36.25 26.25 "/>
<path style=" stroke:none;fill-rule:nonzero;fill:rgb(21.176471%,25.098039%,30.196078%);fill-opacity:1;" d="M 18.75 25 C 18.058594 25 17.5 25.558594 17.5 26.25 C 17.5 26.941406 18.058594 27.5 18.75 27.5 C 19.441406 27.5 20 26.941406 20 26.25 C 20 25.558594 19.441406 25 18.75 25 Z M 18.75 25 "/>
<path style=" stroke:none;fill-rule:nonzero;fill:rgb(29.411765%,39.215686%,46.666667%);fill-opacity:1;" d="M 26.507812 40.625 L 23.492188 40.625 L 21.421875 42.695312 L 19.761719 39.375 L 30.238281 39.375 L 28.578125 42.695312 Z M 26.507812 40.625 "/>
<path style=" stroke:none;fill-rule:nonzero;fill:rgb(21.176471%,25.098039%,30.196078%);fill-opacity:1;" d="M 29.226562 40 L 28.40625 41.640625 L 26.765625 40 L 29.226562 40 M 23.234375 40 L 21.59375 41.640625 L 20.773438 40 L 23.234375 40 M 31.25 38.75 L 18.75 38.75 L 21.25 43.75 L 23.75 41.25 L 26.25 41.25 L 28.75 43.75 Z M 31.25 38.75 "/>
<path style=" stroke:none;fill-rule:nonzero;fill:rgb(36.862745%,61.176471%,46.27451%);fill-opacity:1;" d="M 30.085938 45.890625 L 26.980469 43.75 L 23.019531 43.75 L 19.910156 45.890625 L 20.78125 46.796875 L 23.585938 45 L 26.414062 45 L 29.101562 46.757812 Z M 33.75 38.75 L 26.695312 33.75 L 23.304688 33.75 L 16.25 38.75 L 15 37.5 L 15 39.140625 L 16.289062 40.429688 L 23.75 35 L 26.25 35 L 33.75 40.390625 L 35 39.140625 L 35 37.5 Z M 33.75 38.75 "/>
<path style=" stroke:none;fill-rule:nonzero;fill:rgb(36.862745%,61.176471%,46.27451%);fill-opacity:1;" d="M 33.75 35 L 26.695312 30 L 23.304688 30 L 16.25 35 L 15 33.75 L 15 35.390625 L 16.289062 36.679688 L 23.75 31.25 L 26.25 31.25 L 33.75 36.640625 L 35 35.390625 L 35 33.75 Z M 33.75 35 "/>
<path style=" stroke:none;fill-rule:nonzero;fill:rgb(51.372549%,61.176471%,69.803922%);fill-opacity:1;" d="M 12.566406 20.625 C 14.238281 17.347656 19.132812 9.855469 21.734375 7.105469 C 22.636719 7.550781 23.988281 8.125 25 8.125 C 26.011719 8.125 27.367188 7.578125 28.269531 7.152344 C 30.824219 9.851562 35.792969 17.347656 37.398438 20.625 Z M 12.566406 20.625 "/>
<path style=" stroke:none;fill-rule:nonzero;fill:rgb(40%,47.45098%,56.078431%);fill-opacity:1;" d="M 21.878906 7.867188 C 22.878906 8.328125 24.046875 8.75 25 8.75 C 25.976562 8.75 27.195312 8.3125 28.117188 7.90625 C 30.484375 10.550781 34.542969 16.613281 36.375 20 L 13.609375 20 C 15.496094 16.617188 19.519531 10.523438 21.878906 7.867188 M 21.609375 6.339844 C 18.863281 9.015625 12.71875 18.484375 11.582031 21.25 L 38.359375 21.25 C 37.304688 18.4375 31.140625 9.066406 28.398438 6.390625 C 28.351562 6.414062 26.273438 7.5 25 7.5 C 23.726562 7.5 21.65625 6.359375 21.609375 6.339844 Z M 21.609375 6.339844 "/>
<path style=" stroke:none;fill-rule:nonzero;fill:rgb(51.372549%,61.176471%,69.803922%);fill-opacity:1;" d="M 25 25.625 C 17.894531 25.625 13.125 24.011719 13.125 22.5 L 13.125 20.625 L 36.875 20.625 L 36.875 22.5 C 36.875 24.011719 32.105469 25.625 25 25.625 Z M 25 25.625 "/>
<path style=" stroke:none;fill-rule:nonzero;fill:rgb(40%,47.45098%,56.078431%);fill-opacity:1;" d="M 36.25 21.25 L 36.25 22.5 C 36.25 23.246094 32.421875 25 25 25 C 17.578125 25 13.75 23.246094 13.75 22.5 L 13.75 21.25 L 36.25 21.25 M 37.5 20 L 12.5 20 C 12.5 20 12.5 20.15625 12.5 22.5 C 12.5 24.84375 18.441406 26.25 25 26.25 C 31.558594 26.25 37.5 24.84375 37.5 22.5 C 37.5 20.15625 37.5 20 37.5 20 Z M 37.5 20 "/>
<path style=" stroke:none;fill-rule:nonzero;fill:rgb(69.019608%,75.686275%,83.137255%);fill-opacity:1;" d="M 35.625 48.125 L 35.625 17.5 C 36.261719 18.570312 37.292969 20.347656 37.855469 21.519531 C 37.867188 21.546875 39.144531 24.199219 39.386719 25.457031 L 39.375 30 C 39.375 35.585938 42.074219 45.257812 42.914062 48.125 Z M 35.625 48.125 "/>
<path style=" stroke:none;fill-rule:nonzero;fill:rgb(51.764706%,60%,67.843137%);fill-opacity:1;" d="M 36.25 19.828125 C 36.640625 20.523438 37.023438 21.230469 37.292969 21.792969 C 37.757812 22.753906 38.542969 24.558594 38.75 25.46875 L 38.75 30 C 38.75 35.222656 41.058594 43.910156 42.082031 47.5 L 36.25 47.5 L 36.25 19.828125 M 35.605469 16.25 L 35 16.25 L 35 48.75 L 43.75 48.75 C 43.75 48.75 40 36.453125 40 30 L 40 25.339844 C 39.738281 23.984375 38.417969 21.25 38.417969 21.25 C 37.542969 19.425781 35.605469 16.25 35.605469 16.25 Z M 35.605469 16.25 "/>
<path style=" stroke:none;fill-rule:nonzero;fill:rgb(69.019608%,75.686275%,83.137255%);fill-opacity:1;" d="M 7.085938 48.125 C 7.925781 45.257812 10.625 35.585938 10.625 30 L 10.625 25.25 C 10.855469 24.078125 12.128906 21.558594 12.140625 21.53125 L 14.375 17.546875 L 14.375 48.125 Z M 7.085938 48.125 "/>
<path style=" stroke:none;fill-rule:nonzero;fill:rgb(51.764706%,60%,67.843137%);fill-opacity:1;" d="M 13.75 19.941406 L 13.75 47.5 L 7.917969 47.5 C 8.941406 43.910156 11.25 35.222656 11.25 30 L 11.25 25.375 C 11.476562 24.355469 12.363281 22.476562 12.671875 21.859375 L 13.75 19.941406 M 15 16.25 L 14.386719 16.25 L 11.582031 21.25 C 11.582031 21.25 10.261719 23.859375 10 25.25 L 10 30 C 10 36.453125 6.25 48.75 6.25 48.75 L 15 48.75 Z M 15 16.25 "/>
<path style=" stroke:none;fill-rule:nonzero;fill:rgb(96.862745%,56.078431%,56.078431%);fill-opacity:1;" d="M 12.574219 20.625 C 13.074219 19.648438 13.824219 18.34375 14.734375 16.875 L 35.261719 16.875 C 36.1875 18.363281 36.929688 19.652344 37.429688 20.625 Z M 12.574219 20.625 "/>
<path style=" stroke:none;fill-rule:nonzero;fill:rgb(78.039216%,26.27451%,26.27451%);fill-opacity:1;" d="M 34.910156 17.5 C 35.480469 18.421875 35.980469 19.269531 36.382812 20 L 13.613281 20 C 14.015625 19.269531 14.515625 18.421875 15.082031 17.5 L 34.910156 17.5 M 35.605469 16.25 L 14.386719 16.25 C 13.105469 18.296875 12.066406 20.132812 11.578125 21.25 L 38.417969 21.25 C 37.933594 20.132812 36.890625 18.296875 35.605469 16.25 Z M 35.605469 16.25 "/>
<path style=" stroke:none;fill-rule:nonzero;fill:rgb(100%,93.333333%,63.921569%);fill-opacity:1;" d="M 25 17.5 C 24.308594 17.5 23.75 18.058594 23.75 18.75 C 23.75 19.441406 24.308594 20 25 20 C 25.691406 20 26.25 19.441406 26.25 18.75 C 26.25 18.058594 25.691406 17.5 25 17.5 Z M 25 17.5 "/>
</g>
</svg>
