<?xml version="1.0" encoding="UTF-8"?>
<svg xmlns="http://www.w3.org/2000/svg" xmlns:xlink="http://www.w3.org/1999/xlink" width="50px" height="50px" viewBox="0 0 50 50" version="1.1">
<g id="surface1">
<path style=" stroke:none;fill-rule:nonzero;fill:rgb(45.490196%,80%,81.176471%);fill-opacity:1;" d="M 18.867188 31.847656 C 18.632812 30.59375 17.773438 29.433594 16.882812 28.554688 C 15.964844 27.636719 14.824219 26.808594 13.535156 26.542969 C 12.363281 26.296875 11.296875 26.59375 10.222656 27.0625 C 9.257812 27.492188 8.105469 28.097656 7.207031 28.917969 C 6.835938 29.394531 6.53125 29.960938 6.414062 30.558594 C 6.277344 31.300781 6.375 32.03125 6.425781 32.773438 C 6.425781 32.8125 6.425781 32.859375 6.425781 32.890625 C 6.570312 33.875 6.765625 34.851562 7.265625 35.683594 C 8.191406 37.226562 10.007812 37.910156 11.738281 38.066406 C 14.160156 38.28125 16.777344 37.304688 18.113281 35.175781 C 18.730469 34.179688 19.082031 33.027344 18.867188 31.847656 Z M 18.867188 31.847656 "/>
<path style=" stroke:none;fill-rule:nonzero;fill:rgb(7.058824%,44.705882%,45.490196%);fill-opacity:1;" d="M 23.171875 25.722656 C 23.105469 22.585938 19.863281 20.320312 17.078125 19.648438 C 15.558594 19.289062 14.070312 19.453125 12.578125 19.851562 C 11.28125 20.203125 10.070312 20.710938 8.9375 21.425781 C 8.742188 21.679688 8.554688 21.945312 8.359375 22.195312 C 7.558594 23.242188 6.777344 24.304688 6.023438 25.390625 C 6.738281 24.921875 7.5 24.53125 8.28125 24.199219 C 10.273438 23.378906 12.414062 22.882812 14.5625 23.242188 C 16.496094 23.5625 18.320312 24.445312 19.816406 25.722656 C 21.132812 26.855469 22.238281 28.339844 22.882812 29.96875 C 23 28.671875 23.144531 27.382812 23.332031 26.09375 C 23.242188 26.015625 23.171875 25.890625 23.171875 25.722656 Z M 25 7.6875 C 24.257812 7.402344 23.398438 7.492188 22.753906 7.929688 C 23.703125 8.066406 24.601562 8.429688 25.320312 9.140625 C 25.4375 9.257812 25.554688 9.382812 25.664062 9.511719 C 26.125 9.03125 25.507812 7.882812 25 7.6875 Z M 25 7.6875 "/>
<path style=" stroke:none;fill-rule:nonzero;fill:rgb(73.72549%,73.72549%,73.72549%);fill-opacity:1;" d="M 21.53125 29.675781 C 19.875 26.320312 16.046875 23.90625 12.246094 24.289062 C 10.058594 24.511719 7.753906 25.429688 6.015625 26.777344 C 5.253906 27.363281 4.609375 28.054688 4.121094 28.828125 C 3.867188 29.433594 3.710938 30.066406 3.605469 30.734375 C 3.546875 31.101562 3.476562 31.476562 3.46875 31.855469 C 3.46875 31.933594 3.457031 32.101562 3.457031 32.246094 C 3.457031 32.257812 3.457031 32.257812 3.457031 32.265625 C 3.457031 32.265625 3.457031 32.273438 3.457031 32.273438 C 3.457031 32.382812 3.476562 32.46875 3.496094 32.5 C 3.75 32.742188 3.710938 33.078125 3.535156 33.28125 C 3.761719 34.511719 4.414062 35.664062 5.1875 36.640625 C 6.59375 38.429688 8.496094 40.085938 10.820312 40.390625 C 13.222656 40.703125 15.851562 40.195312 18.015625 39.121094 C 19.796875 38.242188 21.492188 36.71875 22.070312 34.765625 C 22.578125 33.054688 22.324219 31.269531 21.53125 29.675781 Z M 19.6875 34.539062 C 18.828125 36.777344 16.6875 38.496094 14.367188 39.023438 C 12.050781 39.550781 9.109375 39.148438 7.292969 37.507812 C 5.984375 36.320312 5.644531 34.746094 5.371094 33.125 C 5.332031 33.054688 5.300781 32.96875 5.292969 32.871094 C 5.28125 32.761719 5.273438 32.644531 5.261719 32.53125 C 5.242188 32.429688 5.234375 32.335938 5.214844 32.234375 C 5.214844 32.128906 5.214844 32.023438 5.214844 31.914062 C 5.175781 31.316406 5.164062 30.722656 5.339844 30.164062 C 5.429688 29.890625 5.527344 29.617188 5.644531 29.367188 C 5.75 29.089844 5.859375 28.816406 5.976562 28.546875 C 6.09375 28.417969 6.21875 28.289062 6.347656 28.171875 C 6.394531 28.105469 6.445312 28.046875 6.503906 27.976562 C 6.582031 27.882812 6.679688 27.832031 6.765625 27.804688 C 7.742188 27 8.914062 26.375 9.949219 25.945312 C 11.210938 25.421875 12.527344 25.105469 13.886719 25.46875 C 15.359375 25.859375 16.6875 26.71875 17.734375 27.824219 C 18.59375 28.730469 19.472656 29.835938 19.824219 31.054688 C 20.164062 32.207031 20.117188 33.40625 19.6875 34.539062 Z M 19.6875 34.539062 "/>
<path style=" stroke:none;fill-rule:nonzero;fill:rgb(7.058824%,44.705882%,45.490196%);fill-opacity:1;" d="M 41.953125 21.914062 C 41.582031 21.855469 41.414062 21.464844 41.503906 21.164062 C 40.644531 20.3125 39.453125 19.890625 38.273438 19.628906 C 36.699219 19.277344 35.070312 19.328125 33.484375 19.570312 C 32.207031 19.765625 31.074219 20.128906 29.980469 20.832031 C 29.257812 21.300781 28.398438 21.925781 28 22.746094 C 27.898438 23.398438 27.792969 24.054688 27.703125 24.707031 C 27.625 25.242188 27.546875 25.792969 27.480469 26.328125 C 28.390625 25.167969 29.5 24.101562 30.761719 23.367188 C 32.832031 22.167969 35.214844 22 37.519531 22.578125 C 39.5625 23.085938 41.609375 24.035156 43.261719 25.382812 C 42.820312 24.238281 42.375 23.085938 41.953125 21.914062 Z M 31.042969 7.34375 C 30.632812 7.492188 30.28125 7.695312 30.125 8.117188 C 30.066406 8.28125 30.039062 8.46875 30.019531 8.644531 C 30.691406 7.949219 31.523438 7.460938 32.414062 7.257812 C 32.011719 7.109375 31.425781 7.207031 31.042969 7.34375 Z M 31.042969 7.34375 "/>
<path style=" stroke:none;fill-rule:nonzero;fill:rgb(7.058824%,44.705882%,45.490196%);fill-opacity:1;" d="M 39.460938 14.316406 C 38.632812 12.175781 37.414062 9.929688 35.304688 8.820312 C 34.296875 8.289062 33.15625 8.039062 32.070312 8.523438 C 31.113281 8.953125 30.390625 9.8125 29.921875 10.742188 C 29.304688 11.972656 29.121094 13.300781 28.953125 14.648438 C 28.75 16.320312 28.613281 18 28.417969 19.679688 C 28.378906 20.007812 28.339844 20.34375 28.289062 20.671875 C 28.59375 20.421875 28.914062 20.1875 29.21875 19.992188 C 30.46875 19.179688 31.746094 18.71875 33.210938 18.484375 C 35.019531 18.203125 37 18.09375 38.78125 18.613281 C 39.617188 18.859375 40.410156 19.132812 41.125 19.53125 C 40.59375 17.78125 40.117188 16.015625 39.460938 14.316406 Z M 25.164062 10.710938 C 23.953125 8.78125 21.542969 8.703125 19.578125 9.414062 C 17.128906 10.292969 15.421875 12.207031 13.953125 14.289062 C 12.765625 15.988281 11.601562 17.695312 10.398438 19.382812 C 11.140625 19.082031 11.90625 18.835938 12.6875 18.664062 C 14.394531 18.28125 16.0625 18.125 17.765625 18.671875 C 19.433594 19.210938 21.191406 20.164062 22.460938 21.492188 C 22.402344 20.664062 22.585938 19.835938 23.15625 19.121094 C 23.71875 18.40625 24.53125 17.742188 25.410156 17.585938 C 25.398438 17.558594 25.390625 17.53125 25.378906 17.5 C 25.378906 17.480469 25.371094 17.46875 25.359375 17.453125 C 25.515625 16.804688 25.65625 16.152344 25.742188 15.488281 C 25.976562 13.925781 26.035156 12.109375 25.164062 10.710938 Z M 25.164062 10.710938 "/>
<path style=" stroke:none;fill-rule:nonzero;fill:rgb(45.490196%,80%,81.176471%);fill-opacity:1;" d="M 42.480469 32.039062 C 42.195312 29.601562 40.148438 27.8125 37.929688 27.03125 C 35.878906 26.320312 33.652344 26.457031 31.882812 27.746094 C 31.261719 28.203125 30.644531 28.683594 30.097656 29.21875 C 30.066406 29.316406 30 29.40625 29.914062 29.472656 C 29.09375 30.136719 28.996094 31.230469 28.875 32.207031 C 28.828125 32.589844 28.78125 32.980469 28.789062 33.359375 C 28.789062 33.457031 28.789062 33.808594 28.835938 33.945312 C 28.886719 33.957031 28.945312 33.957031 28.996094 33.925781 C 29.015625 33.996094 29.042969 34.074219 29.0625 34.140625 C 29.132812 34.230469 29.171875 34.328125 29.179688 34.433594 C 29.667969 35.546875 30.566406 36.496094 31.71875 37.03125 C 32.765625 37.53125 33.945312 37.648438 35.097656 37.628906 C 36.289062 37.609375 37.5 37.460938 38.632812 37.070312 C 40.820312 36.320312 42.773438 34.550781 42.480469 32.039062 Z M 42.480469 32.039062 "/>
<path style=" stroke:none;fill-rule:nonzero;fill:rgb(73.72549%,73.72549%,73.72549%);fill-opacity:1;" d="M 45.664062 31.476562 C 45.554688 30.890625 45.390625 30.320312 45.164062 29.785156 C 45.007812 29.140625 44.726562 28.515625 44.257812 28.136719 C 44.257812 28.125 44.257812 28.125 44.25 28.117188 C 43.652344 27.273438 42.910156 26.523438 42.050781 25.90625 C 40.066406 24.484375 37.546875 23.40625 35.070312 23.378906 C 32.78125 23.359375 30.867188 24.355469 29.296875 25.957031 C 28.679688 26.582031 27.996094 27.375 27.46875 28.242188 C 27.46875 28.261719 27.460938 28.289062 27.460938 28.339844 C 27.402344 28.816406 27.304688 29.296875 27.253906 29.773438 C 27.195312 30.3125 27.136719 30.847656 27.109375 31.375 C 27.089844 31.84375 27.019531 32.402344 27.128906 32.871094 C 27.148438 32.957031 27.148438 33.035156 27.136719 33.105469 C 27.214844 33.789062 27.273438 34.472656 27.371094 35.15625 C 27.5 36.035156 27.664062 36.972656 28.164062 37.722656 C 28.71875 38.574219 29.597656 39.101562 30.574219 39.367188 C 32.800781 39.953125 35.117188 40.226562 37.421875 40.03125 C 39.597656 39.84375 42.050781 39.296875 43.660156 37.714844 C 45.382812 36.054688 46.09375 33.828125 45.664062 31.476562 Z M 43.195312 34.648438 C 42.167969 36.953125 39.726562 38.144531 37.351562 38.554688 C 34.992188 38.964844 32.257812 38.914062 30.242188 37.460938 C 29.304688 36.789062 28.574219 35.878906 28.125 34.851562 C 27.648438 34.445312 27.609375 33.691406 27.65625 33 C 27.609375 32.429688 27.644531 31.847656 27.78125 31.269531 C 27.804688 31.203125 27.820312 31.144531 27.859375 31.085938 C 27.6875 30.109375 28.59375 29.121094 29.257812 28.488281 C 30.089844 27.6875 31.007812 26.914062 32.003906 26.308594 C 35.128906 24.40625 39.667969 25.78125 41.972656 28.359375 C 43.46875 30.039062 44.140625 32.519531 43.195312 34.648438 Z M 43.195312 34.648438 "/>
<path style=" stroke:none;fill-rule:nonzero;fill:rgb(7.058824%,44.705882%,45.490196%);fill-opacity:1;" d="M 26.796875 22.949219 C 26.765625 22.890625 26.71875 22.832031 26.648438 22.820312 C 26.054688 22.714844 25.476562 22.898438 24.941406 23.164062 C 24.570312 23.339844 23.925781 23.679688 23.964844 24.171875 C 24.003906 24.617188 24.65625 24.589844 24.980469 24.53125 C 25.300781 24.472656 25.605469 24.34375 25.929688 24.289062 C 26.074219 24.257812 26.203125 24.1875 26.308594 24.101562 C 26.386719 24.09375 26.453125 24.070312 26.523438 24.03125 C 26.570312 24.003906 26.621094 23.953125 26.660156 23.90625 C 26.660156 23.90625 26.667969 23.90625 26.667969 23.914062 C 26.667969 23.90625 26.667969 23.90625 26.667969 23.898438 C 26.804688 23.703125 26.855469 23.398438 26.914062 23.203125 C 26.953125 23.078125 26.882812 22.988281 26.796875 22.949219 Z M 27.414062 18.546875 C 27.414062 18.546875 27.414062 18.535156 27.414062 18.535156 C 27.414062 18.535156 27.414062 18.535156 27.414062 18.546875 C 27.363281 18.457031 27.273438 18.40625 27.167969 18.429688 C 27.039062 18.445312 26.921875 18.46875 26.796875 18.476562 C 25.945312 18.515625 25.078125 18.710938 24.382812 19.226562 C 24.011719 19.5 23.847656 19.882812 23.75 20.28125 C 23.585938 20.632812 23.546875 21.015625 23.5625 21.398438 C 23.484375 21.828125 23.445312 22.363281 23.835938 22.597656 C 23.835938 22.609375 23.835938 22.609375 23.847656 22.617188 C 23.859375 22.617188 23.867188 22.617188 23.867188 22.617188 C 23.898438 22.636719 23.933594 22.65625 23.972656 22.667969 C 24.265625 22.773438 24.628906 22.578125 24.882812 22.460938 C 25.28125 22.277344 25.683594 22.140625 26.101562 22.023438 C 26.386719 22.011719 26.679688 22.023438 26.933594 22.03125 C 27.089844 21.007812 27.234375 19.980469 27.351562 18.957031 C 27.382812 18.90625 27.390625 18.859375 27.382812 18.808594 C 27.46875 18.742188 27.460938 18.632812 27.414062 18.546875 Z M 27.414062 18.546875 "/>
<path style=" stroke:none;fill-rule:nonzero;fill:rgb(0.392157%,0.392157%,0.392157%);fill-opacity:1;" d="M 45.273438 27.609375 C 44.523438 25.460938 43.664062 23.339844 42.898438 21.203125 C 42.890625 21.125 42.871094 21.046875 42.820312 20.96875 C 42.636719 20.449219 42.460938 19.929688 42.296875 19.414062 C 41.542969 17.101562 40.96875 14.714844 39.921875 12.507812 C 38.914062 10.378906 37.34375 8.359375 35.085938 7.480469 C 34.6875 7.324219 34.296875 7.226562 33.90625 7.1875 C 33.417969 5.984375 31.882812 5.9375 30.78125 6.257812 C 30.125 6.445312 29.570312 6.835938 29.226562 7.421875 C 28.867188 8.035156 28.90625 8.847656 28.90625 9.53125 C 28.90625 9.726562 28.984375 9.851562 29.101562 9.941406 C 28.554688 10.898438 28.242188 11.953125 28.066406 13.035156 C 27.839844 14.472656 27.695312 15.925781 27.546875 17.382812 C 27.285156 17.402344 27 17.488281 26.765625 17.566406 C 26.679688 17.597656 26.589844 17.625 26.492188 17.664062 C 26.640625 17.078125 26.757812 16.484375 26.855469 15.878906 C 27.148438 14.082031 27.148438 12.070312 26.296875 10.449219 C 27.3125 9.589844 26.992188 7.839844 26.015625 6.980469 C 25.390625 6.433594 24.355469 6.355469 23.574219 6.464844 C 22.703125 6.582031 21.875 7.03125 21.367188 7.753906 C 21.328125 7.800781 21.296875 7.859375 21.289062 7.917969 C 20.605469 7.960938 19.953125 8.105469 19.335938 8.300781 C 17.53125 8.898438 16.035156 10.039062 14.765625 11.4375 C 13.964844 12.3125 13.269531 13.289062 12.609375 14.277344 C 11.894531 15.34375 11.152344 16.375 10.417969 17.421875 C 9.804688 18.300781 9.171875 19.160156 8.542969 20.027344 C 8.203125 20.546875 7.820312 21.132812 7.371094 21.628906 C 6.855469 22.34375 6.328125 23.054688 5.808594 23.769531 C 5.066406 24.785156 4.355469 25.820312 3.691406 26.894531 C 3.445312 27.296875 3.203125 27.6875 3.007812 28.078125 C 3.015625 28.113281 3.015625 28.15625 2.996094 28.203125 C 2.742188 28.976562 2.585938 29.734375 2.5 30.507812 C 2.488281 30.578125 2.480469 30.644531 2.460938 30.722656 C 2.371094 31.289062 2.226562 32.078125 2.402344 32.703125 C 2.402344 32.960938 2.410156 33.210938 2.421875 33.46875 C 2.753906 35.449219 4.089844 37.257812 5.457031 38.644531 C 6.277344 39.472656 7.214844 40.195312 8.230469 40.761719 C 9.21875 41.308594 10.359375 41.515625 11.472656 41.582031 C 15.808594 41.828125 21.199219 39.953125 22.957031 35.644531 C 23.242188 34.953125 23.398438 34.25 23.457031 33.546875 C 23.632812 33.457031 23.777344 33.28125 23.789062 33.039062 C 23.933594 30.382812 24.160156 27.714844 24.617188 25.097656 C 25.214844 25.273438 25.917969 25.117188 26.53125 24.953125 C 26.398438 25.90625 26.257812 26.867188 26.125 27.8125 C 26.125 27.84375 26.125 27.871094 26.113281 27.898438 C 26.101562 27.917969 26.101562 27.9375 26.101562 27.960938 C 26.054688 28.273438 26.015625 28.585938 25.964844 28.898438 C 25.945312 28.9375 25.9375 28.984375 25.917969 29.023438 C 25.90625 30.117188 25.859375 31.222656 25.820312 32.3125 C 25.859375 32.34375 25.886719 32.363281 25.929688 32.382812 C 26.152344 34.0625 26.171875 35.789062 26.757812 37.390625 C 27.078125 38.273438 27.648438 39.054688 28.40625 39.601562 C 29.324219 40.265625 30.4375 40.539062 31.53125 40.78125 C 33.808594 41.28125 36.21875 41.378906 38.535156 41.066406 C 40.761719 40.761719 42.996094 39.992188 44.628906 38.390625 C 47.609375 35.449219 47.453125 30.890625 45.273438 27.609375 Z M 30.136719 8.117188 C 30.285156 7.683594 30.644531 7.480469 31.054688 7.34375 C 31.425781 7.207031 32.011719 7.109375 32.429688 7.265625 C 31.535156 7.46875 30.710938 7.957031 30.039062 8.652344 C 30.046875 8.46875 30.078125 8.289062 30.136719 8.117188 Z M 28.429688 19.679688 C 28.625 18.007812 28.757812 16.328125 28.964844 14.648438 C 29.132812 13.289062 29.308594 11.972656 29.929688 10.742188 C 30.390625 9.8125 31.125 8.953125 32.078125 8.523438 C 33.15625 8.046875 34.304688 8.289062 35.3125 8.820312 C 37.421875 9.929688 38.644531 12.175781 39.472656 14.316406 C 40.125 16.015625 40.605469 17.78125 41.152344 19.519531 C 40.4375 19.121094 39.648438 18.847656 38.808594 18.601562 C 37.03125 18.085938 35.046875 18.195312 33.242188 18.476562 C 31.777344 18.710938 30.5 19.167969 29.25 19.980469 C 28.9375 20.183594 28.625 20.410156 28.320312 20.664062 C 28.339844 20.34375 28.390625 20.007812 28.429688 19.679688 Z M 27.695312 24.726562 C 27.78125 24.070312 27.890625 23.417969 27.988281 22.765625 C 28.390625 21.945312 29.25 21.320312 29.972656 20.851562 C 31.066406 20.136719 32.199219 19.785156 33.476562 19.589844 C 35.058594 19.34375 36.699219 19.296875 38.261719 19.648438 C 39.445312 19.910156 40.625 20.332031 41.492188 21.179688 C 41.40625 21.484375 41.574219 21.875 41.945312 21.933594 C 42.363281 23.09375 42.8125 24.257812 43.25 25.410156 C 41.601562 24.054688 39.550781 23.117188 37.507812 22.609375 C 35.203125 22.03125 32.820312 22.195312 30.753906 23.398438 C 29.492188 24.132812 28.371094 25.195312 27.46875 26.355469 C 27.539062 25.800781 27.617188 25.265625 27.695312 24.726562 Z M 25 7.6875 C 25.5 7.882812 26.125 9.03125 25.664062 9.503906 C 25.554688 9.375 25.449219 9.25 25.320312 9.132812 C 24.601562 8.429688 23.703125 8.058594 22.753906 7.921875 C 23.398438 7.5 24.257812 7.402344 25 7.6875 Z M 22.078125 34.765625 C 21.503906 36.71875 19.804688 38.25 18.027344 39.121094 C 15.859375 40.1875 13.234375 40.695312 10.828125 40.390625 C 8.507812 40.085938 6.601562 38.429688 5.195312 36.640625 C 4.421875 35.664062 3.769531 34.511719 3.542969 33.28125 C 3.71875 33.066406 3.769531 32.746094 3.503906 32.5 C 3.476562 32.472656 3.464844 32.382812 3.464844 32.277344 C 3.464844 32.277344 3.464844 32.265625 3.464844 32.265625 C 3.464844 32.257812 3.464844 32.257812 3.464844 32.246094 C 3.464844 32.101562 3.464844 31.933594 3.476562 31.855469 C 3.484375 31.484375 3.542969 31.105469 3.613281 30.734375 C 3.71875 30.078125 3.886719 29.433594 4.128906 28.828125 C 4.628906 28.058594 5.273438 27.363281 6.023438 26.777344 C 7.761719 25.429688 10.070312 24.511719 12.253906 24.289062 C 16.046875 23.90625 19.875 26.320312 21.542969 29.679688 C 22.324219 31.269531 22.578125 33.054688 22.078125 34.765625 Z M 22.882812 29.96875 C 22.234375 28.339844 21.132812 26.855469 19.8125 25.722656 C 18.328125 24.453125 16.492188 23.5625 14.5625 23.242188 C 12.414062 22.882812 10.265625 23.378906 8.28125 24.199219 C 7.492188 24.523438 6.730469 24.921875 6.027344 25.390625 C 6.777344 24.304688 7.558594 23.242188 8.351562 22.195312 C 8.546875 21.945312 8.730469 21.691406 8.925781 21.425781 C 10.050781 20.710938 11.269531 20.203125 12.570312 19.851562 C 14.0625 19.453125 15.558594 19.277344 17.070312 19.648438 C 19.855469 20.3125 23.097656 22.585938 23.164062 25.722656 C 23.164062 25.890625 23.234375 26.015625 23.332031 26.09375 C 23.144531 27.382812 23 28.671875 22.882812 29.96875 Z M 23.15625 19.132812 C 22.585938 19.84375 22.414062 20.664062 22.460938 21.503906 C 21.191406 20.175781 19.433594 19.210938 17.765625 18.679688 C 16.0625 18.132812 14.394531 18.289062 12.6875 18.671875 C 11.90625 18.847656 11.132812 19.09375 10.398438 19.394531 C 11.601562 17.703125 12.761719 15.996094 13.953125 14.296875 C 15.421875 12.207031 17.128906 10.304688 19.578125 9.425781 C 21.542969 8.722656 23.953125 8.789062 25.164062 10.722656 C 26.046875 12.121094 25.976562 13.9375 25.761719 15.5 C 25.664062 16.164062 25.539062 16.816406 25.382812 17.460938 C 25.390625 17.46875 25.390625 17.492188 25.402344 17.507812 C 25.410156 17.539062 25.421875 17.570312 25.429688 17.597656 C 24.53125 17.753906 23.71875 18.417969 23.15625 19.132812 Z M 26.914062 23.203125 C 26.855469 23.398438 26.816406 23.703125 26.671875 23.898438 C 26.671875 23.90625 26.671875 23.90625 26.671875 23.914062 C 26.671875 23.914062 26.660156 23.914062 26.660156 23.90625 C 26.621094 23.953125 26.582031 23.992188 26.523438 24.03125 C 26.457031 24.070312 26.378906 24.09375 26.308594 24.101562 C 26.203125 24.1875 26.074219 24.257812 25.929688 24.289062 C 25.605469 24.34375 25.304688 24.472656 24.980469 24.53125 C 24.667969 24.589844 24.015625 24.617188 23.964844 24.171875 C 23.917969 23.671875 24.5625 23.339844 24.941406 23.164062 C 25.480469 22.910156 26.054688 22.714844 26.652344 22.820312 C 26.71875 22.832031 26.769531 22.890625 26.796875 22.949219 C 26.882812 22.988281 26.953125 23.078125 26.914062 23.203125 Z M 26.125 22.023438 C 25.703125 22.140625 25.304688 22.273438 24.902344 22.460938 C 24.648438 22.578125 24.289062 22.773438 23.992188 22.664062 C 23.953125 22.65625 23.914062 22.636719 23.886719 22.617188 C 23.875 22.617188 23.867188 22.617188 23.867188 22.617188 C 23.867188 22.609375 23.867188 22.609375 23.859375 22.597656 C 23.46875 22.351562 23.507812 21.828125 23.585938 21.398438 C 23.554688 21.015625 23.601562 20.632812 23.769531 20.28125 C 23.867188 19.875 24.03125 19.5 24.40625 19.226562 C 25.097656 18.710938 25.964844 18.515625 26.816406 18.476562 C 26.945312 18.457031 27.0625 18.445312 27.1875 18.429688 C 27.296875 18.40625 27.382812 18.46875 27.433594 18.535156 C 27.433594 18.535156 27.433594 18.535156 27.441406 18.535156 C 27.441406 18.535156 27.441406 18.542969 27.441406 18.542969 C 27.492188 18.632812 27.492188 18.738281 27.421875 18.808594 C 27.433594 18.855469 27.414062 18.90625 27.394531 18.953125 C 27.277344 19.980469 27.128906 21.003906 26.972656 22.03125 C 26.6875 22.023438 26.40625 22.011719 26.125 22.023438 Z M 43.691406 37.726562 C 42.078125 39.304688 39.617188 39.851562 37.453125 40.039062 C 35.148438 40.234375 32.832031 39.96875 30.605469 39.375 C 29.628906 39.121094 28.75 38.585938 28.195312 37.734375 C 27.695312 36.984375 27.519531 36.046875 27.402344 35.164062 C 27.304688 34.484375 27.246094 33.796875 27.167969 33.117188 C 27.179688 33.035156 27.179688 32.957031 27.15625 32.882812 C 27.050781 32.421875 27.117188 31.855469 27.136719 31.386719 C 27.15625 30.847656 27.226562 30.3125 27.285156 29.785156 C 27.332031 29.308594 27.429688 28.828125 27.492188 28.351562 C 27.5 28.300781 27.5 28.273438 27.5 28.25 C 28.027344 27.382812 28.710938 26.59375 29.328125 25.96875 C 30.898438 24.355469 32.8125 23.371094 35.097656 23.390625 C 37.570312 23.40625 40.097656 24.492188 42.078125 25.917969 C 42.941406 26.535156 43.679688 27.285156 44.277344 28.125 C 44.277344 28.136719 44.277344 28.136719 44.289062 28.144531 C 44.757812 28.527344 45.039062 29.152344 45.195312 29.796875 C 45.421875 30.332031 45.585938 30.898438 45.695312 31.484375 C 46.09375 33.828125 45.382812 36.054688 43.691406 37.726562 Z M 43.691406 37.726562 "/>
<path style=" stroke:none;fill-rule:nonzero;fill:rgb(0.392157%,0.392157%,0.392157%);fill-opacity:1;" d="M 19.835938 31.042969 C 19.484375 29.824219 18.601562 28.71875 17.742188 27.8125 C 16.699219 26.707031 15.371094 25.847656 13.894531 25.457031 C 12.539062 25.097656 11.21875 25.417969 9.960938 25.9375 C 8.925781 26.367188 7.761719 26.980469 6.777344 27.792969 C 6.679688 27.820312 6.589844 27.871094 6.511719 27.96875 C 6.453125 28.035156 6.40625 28.09375 6.355469 28.164062 C 6.230469 28.28125 6.101562 28.40625 5.984375 28.535156 C 5.867188 28.808594 5.75 29.082031 5.652344 29.355469 C 5.535156 29.609375 5.4375 29.882812 5.351562 30.15625 C 5.175781 30.710938 5.183594 31.308594 5.222656 31.902344 C 5.222656 32.011719 5.222656 32.117188 5.222656 32.226562 C 5.242188 32.324219 5.253906 32.421875 5.273438 32.519531 C 5.28125 32.636719 5.292969 32.742188 5.300781 32.859375 C 5.3125 32.957031 5.332031 33.046875 5.378906 33.113281 C 5.652344 34.734375 5.996094 36.308594 7.304688 37.5 C 9.121094 39.140625 12.058594 39.539062 14.375 39.011719 C 16.699219 38.484375 18.835938 36.777344 19.695312 34.53125 C 20.117188 33.40625 20.164062 32.207031 19.835938 31.042969 Z M 18.09375 35.175781 C 16.757812 37.304688 14.148438 38.28125 11.71875 38.066406 C 10 37.921875 8.171875 37.226562 7.246094 35.683594 C 6.75 34.851562 6.554688 33.875 6.40625 32.890625 C 6.414062 32.851562 6.414062 32.8125 6.40625 32.773438 C 6.359375 32.03125 6.261719 31.289062 6.398438 30.558594 C 6.515625 29.960938 6.816406 29.394531 7.1875 28.917969 C 8.085938 28.105469 9.238281 27.492188 10.203125 27.0625 C 11.28125 26.59375 12.34375 26.296875 13.515625 26.542969 C 14.816406 26.804688 15.949219 27.636719 16.867188 28.554688 C 17.753906 29.433594 18.613281 30.605469 18.847656 31.847656 C 19.082031 33.027344 18.730469 34.179688 18.09375 35.175781 Z M 41.953125 28.351562 C 39.648438 25.78125 35.109375 24.40625 31.984375 26.296875 C 30.996094 26.90625 30.066406 27.675781 29.238281 28.476562 C 28.574219 29.113281 27.664062 30.097656 27.839844 31.074219 C 27.8125 31.125 27.78125 31.191406 27.761719 31.261719 C 27.625 31.847656 27.585938 32.421875 27.636719 32.988281 C 27.585938 33.679688 27.636719 34.433594 28.105469 34.84375 C 28.554688 35.867188 29.285156 36.777344 30.222656 37.453125 C 32.234375 38.90625 34.980469 38.953125 37.332031 38.546875 C 39.707031 38.125 42.148438 36.933594 43.171875 34.640625 C 44.140625 32.519531 43.46875 30.039062 41.953125 28.351562 Z M 38.632812 37.078125 C 37.5 37.46875 36.289062 37.617188 35.097656 37.636719 C 33.945312 37.65625 32.773438 37.527344 31.71875 37.039062 C 30.566406 36.503906 29.667969 35.554688 29.179688 34.441406 C 29.171875 34.335938 29.140625 34.238281 29.0625 34.148438 C 29.03125 34.082031 29.015625 34.011719 28.996094 33.933594 C 28.945312 33.953125 28.898438 33.964844 28.835938 33.953125 C 28.789062 33.816406 28.789062 33.464844 28.789062 33.367188 C 28.78125 32.988281 28.828125 32.597656 28.875 32.214844 C 28.992188 31.238281 29.089844 30.144531 29.914062 29.480469 C 30.007812 29.402344 30.070312 29.316406 30.097656 29.226562 C 30.644531 28.691406 31.257812 28.203125 31.882812 27.753906 C 33.652344 26.453125 35.878906 26.328125 37.929688 27.039062 C 40.148438 27.8125 42.1875 29.609375 42.480469 32.050781 C 42.773438 34.550781 40.820312 36.320312 38.632812 37.078125 Z M 38.632812 37.078125 "/>
</g>
</svg>
