<?xml version="1.0" encoding="UTF-8"?>
<svg xmlns="http://www.w3.org/2000/svg" xmlns:xlink="http://www.w3.org/1999/xlink" width="50px" height="50px" viewBox="0 0 50 50" version="1.1">
<g id="surface1">
<path style=" stroke:none;fill-rule:nonzero;fill:rgb(7.843137%,71.372549%,72.54902%);fill-opacity:1;" d="M 15.859375 25.625 C 15.304688 25.566406 14.835938 26.140625 14.6875 26.746094 C 14.472656 27.675781 14.953125 28.183594 15.9375 28.113281 C 16.046875 28.105469 16.140625 28.125 16.222656 28.164062 C 16.085938 27.3125 15.976562 26.476562 15.859375 25.625 Z M 39.335938 25.976562 C 39.316406 25.617188 39.21875 25.226562 39.015625 24.914062 C 38.945312 24.804688 38.867188 24.648438 38.742188 24.601562 C 38.71875 24.589844 38.710938 24.589844 38.703125 24.589844 C 38.640625 24.621094 38.59375 24.648438 38.546875 24.695312 C 38.40625 24.8125 38.261719 24.835938 38.144531 24.804688 C 38.09375 25.371094 38.046875 25.9375 37.988281 26.515625 C 38.5625 26.632812 39.382812 26.816406 39.335938 25.976562 Z M 39.335938 25.976562 "/>
<path style=" stroke:none;fill-rule:nonzero;fill:rgb(98.823529%,74.901961%,58.431373%);fill-opacity:1;" d="M 37.53125 15.320312 C 37.519531 15.3125 37.507812 15.292969 37.5 15.273438 C 37.421875 15.175781 37.34375 15.085938 37.246094 15.011719 C 37.1875 14.960938 37.101562 14.902344 37.023438 14.882812 C 36.941406 15.148438 36.699219 15.382812 36.398438 15.304688 C 35.203125 14.992188 34.304688 13.9375 33.703125 12.921875 C 33.40625 12.441406 33.144531 11.914062 32.949219 11.367188 C 32.820312 11.554688 32.675781 11.726562 32.519531 11.894531 C 31.867188 12.585938 31.054688 13.078125 30.332031 13.691406 C 29.660156 14.257812 29.015625 14.875 28.171875 15.1875 C 27.890625 15.292969 27.585938 15.128906 27.492188 14.855469 C 27.285156 14.296875 27.332031 13.644531 27.414062 13.058594 C 27.167969 13.398438 26.914062 13.730469 26.609375 14.003906 C 25.996094 14.5625 25.292969 15.039062 24.539062 15.390625 C 24.023438 15.632812 23.242188 15.703125 23.039062 15 C 22.9375 14.648438 22.9375 14.285156 22.976562 13.925781 C 22.050781 14.316406 20.839844 14.433594 20.175781 14.550781 C 19.484375 14.679688 18.90625 15 18.300781 15.371094 C 17.871094 15.625 17.453125 15.898438 17.070312 16.230469 C 16.964844 16.328125 16.816406 16.445312 16.738281 16.582031 C 16.738281 16.582031 16.71875 16.640625 16.699219 16.671875 C 16.875 17.15625 16.308594 17.46875 15.929688 17.273438 C 16.027344 18.847656 16.203125 20.421875 16.425781 21.984375 C 16.5625 22.960938 16.699219 23.945312 16.835938 24.921875 C 16.914062 25.039062 16.921875 25.1875 16.894531 25.3125 C 17.039062 26.320312 17.1875 27.335938 17.363281 28.339844 C 17.65625 30.089844 18.085938 31.875 19.054688 33.378906 C 20.078125 34.980469 21.621094 36.230469 23.367188 36.964844 C 25.664062 37.929688 28.332031 38.019531 30.617188 36.984375 C 32.851562 35.96875 34.578125 34.082031 35.578125 31.855469 C 36.632812 29.511719 36.875 27.011719 37.101562 24.472656 C 37.363281 21.59375 37.519531 18.703125 37.675781 15.8125 C 37.53125 15.703125 37.460938 15.527344 37.53125 15.320312 Z M 22.453125 21.582031 C 22 21.945312 21.289062 21.867188 20.890625 21.484375 C 20.398438 21.023438 20.421875 20.226562 20.773438 19.726562 C 20.566406 19.71875 20.363281 19.734375 20.15625 19.785156 C 20.070312 19.875 19.953125 19.921875 19.796875 19.921875 L 19.589844 19.921875 C 18.976562 19.921875 18.691406 18.992188 19.355469 18.808594 C 20.644531 18.445312 22.363281 18.46875 22.78125 20.046875 C 22.921875 20.585938 22.929688 21.210938 22.453125 21.582031 Z M 25.554688 19.875 C 25.617188 19.132812 26.746094 19.367188 26.6875 20.085938 C 26.5625 21.609375 26.835938 23.117188 26.816406 24.628906 C 26.804688 25.398438 26.601562 27.078125 27.53125 27.402344 C 28.222656 27.644531 27.707031 28.679688 27.023438 28.425781 C 25.703125 27.957031 25.664062 26.199219 25.675781 25.039062 C 25.683594 23.320312 25.421875 21.609375 25.554688 19.875 Z M 29.265625 32.167969 C 28.601562 32.609375 27.859375 33.132812 27.023438 32.96875 C 26.269531 32.820312 25.46875 32.414062 25.164062 31.667969 C 24.882812 30.984375 25.964844 30.605469 26.25 31.289062 C 26.40625 31.648438 27.117188 31.894531 27.492188 31.835938 C 27.910156 31.757812 28.28125 31.445312 28.632812 31.21875 C 29.238281 30.800781 29.882812 31.757812 29.265625 32.167969 Z M 33.25 21.023438 C 32.265625 21.554688 31.269531 20.46875 31.492188 19.492188 C 31.289062 19.542969 31.101562 19.65625 30.945312 19.835938 C 30.46875 20.402344 29.597656 19.640625 30.085938 19.070312 C 30.867188 18.15625 32.128906 18.066406 33.09375 18.769531 C 33.828125 19.328125 34.257812 20.488281 33.25 21.023438 Z M 33.25 21.023438 "/>
<path style=" stroke:none;fill-rule:nonzero;fill:rgb(77.254902%,39.607843%,15.686275%);fill-opacity:1;" d="M 32.742188 6.28125 C 32.742188 6.257812 32.734375 6.25 32.734375 6.230469 C 32.507812 4.578125 31.007812 3.5625 29.597656 2.949219 C 27.878906 2.207031 25.976562 1.738281 24.101562 1.863281 C 21.921875 2.011719 19.851562 2.792969 17.996094 3.925781 C 16.667969 4.734375 15.671875 5.828125 15.039062 7.195312 C 15.339844 7.148438 15.644531 7.117188 15.945312 7.117188 C 16.257812 7.117188 16.621094 7.402344 16.511719 7.753906 C 16.25 8.601562 15.28125 8.914062 14.628906 9.394531 C 14.226562 9.6875 13.886719 10.125 13.582031 10.515625 C 13.230469 10.964844 12.898438 11.4375 12.683594 11.960938 C 12.332031 12.820312 12.058594 13.730469 11.914062 14.65625 C 11.816406 15.261719 11.726562 15.976562 11.902344 16.601562 C 12.019531 16.523438 12.148438 16.453125 12.273438 16.398438 C 12.546875 16.25 12.988281 16.296875 13.085938 16.660156 C 13.425781 18.046875 13.5625 19.484375 13.90625 20.867188 C 14.207031 22.070312 14.636719 23.46875 15.671875 24.25 C 15.664062 24.199219 15.664062 24.160156 15.652344 24.109375 C 15.175781 21.035156 14.785156 17.949219 14.773438 14.824219 C 14.773438 14.128906 15.847656 14.050781 15.847656 14.746094 C 15.847656 15.15625 15.859375 15.566406 15.867188 15.964844 C 16.140625 15.585938 16.5625 15.261719 16.875 15.039062 C 17.597656 14.519531 18.378906 14.0625 19.1875 13.699219 C 19.882812 13.398438 20.75 13.398438 21.484375 13.230469 C 21.921875 13.132812 22.371094 13.015625 22.773438 12.8125 C 22.988281 12.703125 23.132812 12.578125 23.164062 12.441406 C 23.164062 12.421875 23.164062 12.390625 23.164062 12.371094 C 23.183594 11.6875 24.167969 11.589844 24.238281 12.292969 C 24.257812 12.5 24.238281 12.683594 24.179688 12.851562 C 24.101562 13.386719 23.964844 13.933594 24.011719 14.460938 C 24.03125 14.453125 24.054688 14.441406 24.070312 14.433594 C 24.363281 14.296875 24.648438 14.128906 24.921875 13.953125 C 25.535156 13.5625 26.101562 13.09375 26.511719 12.488281 C 26.941406 11.863281 27.371094 11.277344 27.988281 10.820312 C 28.347656 10.546875 28.945312 10.917969 28.816406 11.367188 C 28.671875 11.902344 28.5625 12.460938 28.496094 13.015625 C 28.464844 13.28125 28.417969 13.582031 28.40625 13.875 C 28.914062 13.542969 29.367188 13.09375 29.835938 12.714844 C 30.457031 12.207031 31.164062 11.796875 31.710938 11.191406 C 32.167969 10.671875 32.5 10.078125 32.648438 9.421875 C 32.648438 9.421875 32.648438 9.414062 32.648438 9.414062 C 32.648438 9.363281 32.664062 9.324219 32.675781 9.277344 C 32.695312 9.160156 32.714844 9.042969 32.726562 8.914062 C 32.785156 8.144531 32.648438 7.382812 32.648438 6.621094 C 32.636719 6.476562 32.675781 6.367188 32.742188 6.28125 Z M 39.8125 10.828125 C 39.953125 10.859375 40.078125 10.90625 40.203125 10.957031 C 39.851562 9.265625 39.453125 7.570312 38.007812 6.464844 C 37.011719 5.710938 34.824219 4.394531 33.652344 5.46875 C 33.71875 5.683594 33.769531 5.898438 33.796875 6.132812 C 33.816406 6.289062 33.78125 6.414062 33.703125 6.515625 C 33.703125 6.515625 33.703125 6.523438 33.703125 6.523438 C 33.710938 7.441406 33.875 8.351562 33.75 9.265625 C 33.730469 9.375 33.710938 9.484375 33.691406 9.589844 C 33.691406 9.589844 33.691406 9.589844 33.691406 9.601562 C 33.601562 10.515625 34.101562 11.554688 34.570312 12.3125 C 34.96875 12.957031 35.527344 13.78125 36.257812 14.128906 C 36.609375 13.757812 37.148438 13.699219 37.6875 14.03125 C 37.832031 14.121094 37.988281 14.246094 38.132812 14.394531 C 38.4375 14.304688 38.796875 14.441406 38.769531 14.84375 C 38.703125 16.179688 38.632812 17.507812 38.554688 18.847656 C 40.15625 16.902344 40.671875 13.816406 39.257812 11.667969 C 39.023438 11.289062 39.355469 10.710938 39.8125 10.828125 Z M 39.8125 10.828125 "/>
<path style=" stroke:none;fill-rule:nonzero;fill:rgb(7.843137%,71.372549%,72.54902%);fill-opacity:1;" d="M 42.050781 43.367188 C 41.660156 43.15625 41.269531 42.960938 40.878906 42.765625 C 39.882812 42.273438 38.75 42.0625 37.65625 41.789062 C 37.117188 43.507812 35.28125 43.320312 33.847656 42.773438 C 33.601562 43.703125 33.175781 44.503906 32.128906 44.824219 C 30.957031 45.1875 29.941406 44.785156 29.148438 44.003906 C 28.613281 44.679688 27.792969 45.089844 26.894531 45.070312 C 25.957031 45.039062 25.164062 44.550781 24.6875 43.789062 C 23.222656 44.734375 20.742188 44.132812 20.539062 42.257812 C 20.15625 42.382812 19.773438 42.492188 19.40625 42.570312 C 18.085938 42.859375 16.75 42.921875 15.429688 43.15625 C 15.007812 43.234375 14.582031 43.289062 14.171875 43.398438 C 13.976562 43.445312 13.78125 43.496094 13.59375 43.5625 C 13.613281 43.601562 13.640625 43.640625 13.652344 43.691406 C 13.953125 44.582031 14.480469 45.363281 15.214844 45.957031 C 16.710938 47.167969 18.671875 47.628906 20.527344 47.898438 C 21.464844 48.039062 22.414062 48.132812 23.359375 48.234375 C 24.648438 48.359375 25.929688 48.554688 27.226562 48.613281 C 30.214844 48.75 33.242188 48.4375 36.046875 47.332031 C 37.453125 46.777344 38.839844 46.140625 40.164062 45.429688 C 40.59375 45.195312 41.054688 45.007812 41.476562 44.753906 C 41.777344 44.570312 42.234375 44.34375 42.304688 43.953125 C 42.335938 43.796875 42.414062 43.691406 42.507812 43.625 C 42.363281 43.546875 42.207031 43.457031 42.050781 43.367188 Z M 42.050781 43.367188 "/>
<path style=" stroke:none;fill-rule:nonzero;fill:rgb(83.921569%,89.803922%,89.803922%);fill-opacity:1;" d="M 33.378906 39.511719 C 33.339844 39.453125 33.300781 39.394531 33.261719 39.335938 C 33.242188 39.375 33.222656 39.414062 33.183594 39.445312 C 32.089844 40.734375 30.320312 41.359375 28.664062 41.28125 C 26.855469 41.191406 24.875 41.269531 23.289062 40.273438 C 23.210938 40.460938 23.105469 40.625 22.960938 40.792969 C 22.578125 41.210938 22.109375 41.542969 21.601562 41.816406 C 21.601562 41.835938 21.601562 41.855469 21.601562 41.882812 C 21.570312 43.367188 23.710938 43.554688 24.472656 42.550781 C 24.71875 42.238281 25.273438 42.355469 25.378906 42.726562 C 25.859375 44.347656 27.9375 44.386719 28.59375 42.859375 C 28.757812 42.46875 29.296875 42.492188 29.519531 42.804688 C 30.085938 43.59375 30.917969 44.1875 31.914062 43.769531 C 32.714844 43.4375 32.804688 42.695312 32.9375 41.921875 C 33 41.582031 33.398438 41.398438 33.703125 41.542969 C 34.453125 41.914062 36.257812 42.695312 36.632812 41.492188 C 35.421875 41.09375 34.171875 40.554688 33.378906 39.511719 Z M 33.378906 39.511719 "/>
<path style=" stroke:none;fill-rule:nonzero;fill:rgb(98.823529%,74.901961%,58.431373%);fill-opacity:1;" d="M 32.570312 37.109375 C 31.398438 37.921875 30.039062 38.484375 28.527344 38.710938 C 26.789062 38.964844 25.046875 38.75 23.457031 38.164062 C 23.476562 38.515625 23.507812 38.867188 23.496094 39.207031 C 23.574219 39.207031 23.652344 39.238281 23.742188 39.285156 C 25.136719 40.175781 26.835938 40.117188 28.429688 40.195312 C 29.882812 40.261719 31.386719 39.882812 32.375 38.730469 C 32.519531 38.5625 32.695312 38.515625 32.859375 38.554688 C 32.695312 38.105469 32.609375 37.609375 32.570312 37.109375 Z M 32.570312 37.109375 "/>
<path style=" stroke:none;fill-rule:nonzero;fill:rgb(0%,0%,0%);fill-opacity:1;" d="M 42.0625 42.15625 C 41.015625 41.609375 39.921875 41.28125 38.78125 40.984375 C 37.375 40.625 35.859375 40.292969 34.707031 39.34375 C 33.769531 38.585938 33.621094 37.460938 33.613281 36.320312 C 33.613281 36.308594 33.613281 36.296875 33.613281 36.289062 C 35.34375 34.734375 36.59375 32.617188 37.273438 30.34375 C 37.546875 29.433594 37.734375 28.503906 37.859375 27.578125 C 38.359375 27.675781 38.847656 27.773438 39.367188 27.617188 C 40.085938 27.402344 40.421875 26.589844 40.410156 25.898438 C 40.390625 24.863281 39.433594 23.027344 38.242188 23.621094 C 38.25 23.535156 38.25 23.457031 38.261719 23.367188 C 38.347656 22.265625 38.425781 21.160156 38.496094 20.066406 C 38.671875 20.125 38.875 20.097656 39.042969 19.929688 C 40.847656 18.074219 41.640625 15.066406 40.859375 12.566406 C 41.238281 12.65625 41.59375 12.3125 41.484375 11.875 C 41.203125 10.652344 41.035156 9.402344 40.585938 8.230469 C 40.15625 7.117188 39.421875 6.171875 38.457031 5.476562 C 37.070312 4.480469 34.773438 3.40625 33.203125 4.480469 C 32.578125 3.445312 31.542969 2.695312 30.421875 2.148438 C 28.503906 1.210938 26.296875 0.703125 24.179688 0.78125 C 21.757812 0.867188 19.453125 1.804688 17.390625 3.027344 C 15.507812 4.148438 14.277344 5.867188 13.605469 7.9375 C 13.496094 8.273438 13.742188 8.484375 14.015625 8.535156 C 13.800781 8.703125 13.605469 8.886719 13.398438 9.09375 C 12.597656 9.929688 11.933594 10.878906 11.53125 11.972656 C 11.171875 12.9375 10.898438 13.945312 10.78125 14.980469 C 10.671875 15.90625 10.703125 16.921875 11.242188 17.726562 C 11.445312 18.039062 11.835938 18.007812 12.089844 17.78125 C 12.128906 17.753906 12.167969 17.714844 12.207031 17.6875 C 12.703125 20.15625 12.832031 23.144531 14.777344 24.882812 C 14.230469 25.253906 13.820312 25.890625 13.644531 26.554688 C 13.476562 27.179688 13.554688 27.890625 13.9375 28.417969 C 14.414062 29.082031 15.265625 29.25 16.035156 29.191406 C 16.191406 29.179688 16.308594 29.113281 16.386719 29.023438 C 16.554688 29.902344 16.757812 30.773438 17.039062 31.621094 C 17.9375 34.316406 19.929688 36.476562 22.382812 37.707031 C 22.382812 38.195312 22.441406 38.683594 22.449219 39.179688 C 22.46875 39.835938 22.089844 40.234375 21.570312 40.585938 C 20.4375 41.359375 19.023438 41.632812 17.683594 41.816406 C 16.621094 41.964844 15.546875 42.0625 14.480469 42.265625 C 13.847656 42.394531 12.441406 42.558594 12.332031 43.398438 C 12.304688 43.664062 12.429688 43.859375 12.617188 43.957031 C 12.625 43.996094 12.625 44.035156 12.644531 44.074219 C 14.023438 48.066406 18.613281 48.847656 22.285156 49.230469 C 24.851562 49.492188 27.414062 49.835938 30 49.707031 C 31.464844 49.640625 32.921875 49.40625 34.34375 49.042969 C 35.828125 48.664062 37.226562 48.046875 38.613281 47.421875 C 39.609375 46.972656 40.566406 46.464844 41.542969 45.976562 C 42.273438 45.605469 43.191406 45.117188 43.359375 44.230469 C 43.59375 44.238281 43.820312 44.113281 43.859375 43.808594 C 43.953125 42.949219 42.648438 42.460938 42.0625 42.15625 Z M 38.554688 24.695312 C 38.601562 24.65625 38.652344 24.617188 38.710938 24.589844 C 38.722656 24.589844 38.730469 24.601562 38.75 24.601562 C 38.867188 24.65625 38.953125 24.804688 39.023438 24.914062 C 39.21875 25.226562 39.316406 25.605469 39.34375 25.976562 C 39.40625 26.804688 38.574219 26.632812 38.007812 26.503906 C 38.066406 25.9375 38.117188 25.371094 38.164062 24.792969 C 38.273438 24.835938 38.417969 24.804688 38.554688 24.695312 Z M 38.015625 6.476562 C 39.460938 7.578125 39.863281 9.277344 40.214844 10.96875 C 40.085938 10.917969 39.960938 10.867188 39.824219 10.839844 C 39.355469 10.722656 39.03125 11.289062 39.277344 11.671875 C 40.695312 13.820312 40.175781 16.90625 38.574219 18.847656 C 38.652344 17.507812 38.71875 16.179688 38.789062 14.84375 C 38.808594 14.445312 38.457031 14.304688 38.15625 14.394531 C 38.007812 14.25 37.851562 14.121094 37.703125 14.035156 C 37.167969 13.703125 36.632812 13.757812 36.277344 14.132812 C 35.546875 13.78125 34.988281 12.96875 34.589844 12.316406 C 34.121094 11.554688 33.621094 10.527344 33.710938 9.601562 C 33.710938 9.601562 33.710938 9.601562 33.710938 9.589844 C 33.730469 9.484375 33.75 9.375 33.769531 9.269531 C 33.898438 8.351562 33.730469 7.441406 33.71875 6.523438 C 33.71875 6.523438 33.71875 6.515625 33.71875 6.515625 C 33.796875 6.425781 33.835938 6.300781 33.816406 6.132812 C 33.789062 5.898438 33.738281 5.683594 33.671875 5.46875 C 34.824219 4.40625 37.023438 5.710938 38.015625 6.476562 Z M 13.898438 20.859375 C 13.546875 19.472656 13.417969 18.039062 13.078125 16.648438 C 12.988281 16.28125 12.546875 16.242188 12.265625 16.386719 C 12.140625 16.453125 12.011719 16.523438 11.894531 16.59375 C 11.71875 15.976562 11.804688 15.253906 11.90625 14.648438 C 12.050781 13.730469 12.324219 12.824219 12.675781 11.953125 C 12.890625 11.425781 13.222656 10.945312 13.574219 10.507812 C 13.875 10.117188 14.21875 9.6875 14.617188 9.382812 C 15.273438 8.898438 16.242188 8.585938 16.503906 7.746094 C 16.609375 7.394531 16.25 7.101562 15.9375 7.109375 C 15.632812 7.109375 15.320312 7.140625 15.027344 7.1875 C 15.664062 5.820312 16.660156 4.71875 17.988281 3.917969 C 19.84375 2.792969 21.914062 2.003906 24.09375 1.855469 C 25.964844 1.730469 27.882812 2.199219 29.589844 2.941406 C 31.007812 3.554688 32.507812 4.570312 32.726562 6.222656 C 32.726562 6.242188 32.734375 6.261719 32.734375 6.269531 C 32.667969 6.359375 32.625 6.476562 32.625 6.613281 C 32.636719 7.375 32.765625 8.144531 32.703125 8.90625 C 32.695312 9.023438 32.675781 9.152344 32.65625 9.269531 C 32.648438 9.308594 32.636719 9.355469 32.625 9.40625 C 32.625 9.40625 32.625 9.414062 32.625 9.414062 C 32.480469 10.078125 32.148438 10.675781 31.6875 11.183594 C 31.152344 11.789062 30.449219 12.199219 29.8125 12.707031 C 29.34375 13.085938 28.90625 13.535156 28.390625 13.867188 C 28.390625 13.574219 28.4375 13.273438 28.476562 13.007812 C 28.542969 12.453125 28.652344 11.894531 28.796875 11.359375 C 28.925781 10.910156 28.328125 10.539062 27.96875 10.8125 C 27.351562 11.269531 26.921875 11.855469 26.492188 12.480469 C 26.074219 13.085938 25.515625 13.554688 24.902344 13.945312 C 24.628906 14.121094 24.34375 14.289062 24.050781 14.425781 C 24.03125 14.433594 24.011719 14.445312 23.992188 14.453125 C 23.945312 13.925781 24.082031 13.378906 24.160156 12.84375 C 24.21875 12.675781 24.238281 12.492188 24.21875 12.285156 C 24.148438 11.582031 23.164062 11.691406 23.144531 12.363281 C 23.144531 12.382812 23.144531 12.414062 23.144531 12.433594 C 23.113281 12.570312 22.96875 12.695312 22.753906 12.804688 C 22.351562 13.007812 21.894531 13.117188 21.464844 13.222656 C 20.730469 13.398438 19.863281 13.390625 19.167969 13.691406 C 18.359375 14.042969 17.566406 14.511719 16.855469 15.03125 C 16.542969 15.253906 16.121094 15.578125 15.847656 15.957031 C 15.839844 15.546875 15.828125 15.136719 15.828125 14.738281 C 15.828125 14.042969 14.753906 14.132812 14.753906 14.816406 C 14.765625 17.929688 15.164062 21.027344 15.632812 24.101562 C 15.644531 24.152344 15.644531 24.191406 15.652344 24.238281 C 14.628906 23.457031 14.199219 22.0625 13.898438 20.859375 Z M 15.949219 28.105469 C 14.960938 28.171875 14.484375 27.675781 14.695312 26.738281 C 14.835938 26.140625 15.3125 25.554688 15.867188 25.617188 C 15.984375 26.457031 16.09375 27.304688 16.230469 28.144531 C 16.140625 28.125 16.054688 28.105469 15.949219 28.105469 Z M 19.042969 33.390625 C 18.078125 31.882812 17.648438 30.085938 17.351562 28.347656 C 17.1875 27.34375 17.03125 26.335938 16.882812 25.320312 C 16.914062 25.183594 16.902344 25.046875 16.828125 24.929688 C 16.6875 23.953125 16.550781 22.96875 16.414062 21.992188 C 16.191406 20.429688 16.015625 18.855469 15.917969 17.285156 C 16.296875 17.480469 16.867188 17.167969 16.6875 16.679688 C 16.710938 16.648438 16.726562 16.589844 16.726562 16.589844 C 16.796875 16.464844 16.945312 16.335938 17.0625 16.238281 C 17.433594 15.90625 17.859375 15.644531 18.289062 15.378906 C 18.898438 15.019531 19.472656 14.6875 20.164062 14.558594 C 20.828125 14.441406 22.039062 14.316406 22.96875 13.933594 C 22.929688 14.296875 22.929688 14.65625 23.027344 15.007812 C 23.222656 15.710938 24.011719 15.644531 24.53125 15.398438 C 25.28125 15.046875 25.984375 14.570312 26.601562 14.011719 C 26.914062 13.730469 27.15625 13.398438 27.402344 13.066406 C 27.332031 13.652344 27.273438 14.304688 27.480469 14.863281 C 27.578125 15.136719 27.882812 15.292969 28.164062 15.195312 C 29.003906 14.882812 29.648438 14.265625 30.320312 13.699219 C 31.042969 13.085938 31.855469 12.605469 32.507812 11.902344 C 32.664062 11.738281 32.804688 11.5625 32.9375 11.375 C 33.132812 11.921875 33.40625 12.441406 33.691406 12.929688 C 34.296875 13.945312 35.203125 15 36.386719 15.3125 C 36.6875 15.390625 36.933594 15.15625 37.011719 14.890625 C 37.089844 14.910156 37.175781 14.980469 37.234375 15.019531 C 37.332031 15.097656 37.421875 15.183594 37.492188 15.28125 C 37.5 15.300781 37.507812 15.3125 37.519531 15.332031 C 37.453125 15.535156 37.519531 15.710938 37.65625 15.828125 C 37.5 18.71875 37.34375 21.609375 37.078125 24.492188 C 36.84375 27.019531 36.609375 29.519531 35.554688 31.875 C 34.550781 34.101562 32.832031 35.984375 30.59375 37 C 28.300781 38.039062 25.644531 37.960938 23.347656 36.984375 C 21.601562 36.242188 20.070312 34.992188 19.042969 33.390625 Z M 23.46875 38.164062 C 25.058594 38.75 26.789062 38.964844 28.535156 38.710938 C 30.046875 38.484375 31.398438 37.921875 32.578125 37.109375 C 32.617188 37.609375 32.703125 38.105469 32.882812 38.5625 C 32.714844 38.527344 32.539062 38.5625 32.390625 38.742188 C 31.40625 39.894531 29.902344 40.273438 28.445312 40.207031 C 26.855469 40.125 25.148438 40.1875 23.757812 39.296875 C 23.671875 39.25 23.59375 39.21875 23.515625 39.21875 C 23.515625 38.867188 23.484375 38.515625 23.46875 38.164062 Z M 22.960938 40.789062 C 23.105469 40.625 23.210938 40.449219 23.289062 40.273438 C 24.882812 41.269531 26.855469 41.191406 28.664062 41.28125 C 30.320312 41.359375 32.078125 40.734375 33.183594 39.445312 C 33.210938 39.40625 33.242188 39.375 33.261719 39.335938 C 33.300781 39.394531 33.339844 39.453125 33.378906 39.511719 C 34.160156 40.554688 35.421875 41.09375 36.632812 41.492188 C 36.257812 42.695312 34.460938 41.914062 33.703125 41.542969 C 33.390625 41.386719 33 41.570312 32.9375 41.921875 C 32.804688 42.695312 32.714844 43.4375 31.914062 43.769531 C 30.917969 44.1875 30.089844 43.59375 29.523438 42.800781 C 29.296875 42.492188 28.757812 42.480469 28.59375 42.859375 C 27.941406 44.382812 25.871094 44.355469 25.382812 42.726562 C 25.273438 42.351562 24.707031 42.226562 24.472656 42.546875 C 23.710938 43.554688 21.574219 43.367188 21.601562 41.882812 C 21.601562 41.867188 21.601562 41.835938 21.601562 41.816406 C 22.109375 41.554688 22.578125 41.210938 22.960938 40.789062 Z M 42.3125 43.976562 C 42.246094 44.355469 41.789062 44.589844 41.484375 44.773438 C 41.0625 45.03125 40.605469 45.214844 40.175781 45.449219 C 38.839844 46.152344 37.460938 46.796875 36.054688 47.351562 C 33.253906 48.457031 30.226562 48.769531 27.238281 48.632812 C 25.9375 48.574219 24.660156 48.378906 23.371094 48.25 C 22.421875 48.164062 21.476562 48.066406 20.539062 47.921875 C 18.683594 47.636719 16.710938 47.1875 15.226562 45.976562 C 14.492188 45.382812 13.976562 44.601562 13.664062 43.710938 C 13.644531 43.664062 13.625 43.625 13.605469 43.585938 C 13.789062 43.515625 13.984375 43.46875 14.179688 43.417969 C 14.601562 43.3125 15.019531 43.253906 15.441406 43.175781 C 16.757812 42.941406 18.105469 42.882812 19.414062 42.589844 C 19.785156 42.511719 20.167969 42.402344 20.546875 42.277344 C 20.742188 44.152344 23.234375 44.757812 24.699219 43.808594 C 25.167969 44.5625 25.96875 45.058594 26.90625 45.089844 C 27.804688 45.117188 28.625 44.699219 29.160156 44.023438 C 29.953125 44.804688 30.96875 45.207031 32.140625 44.84375 C 33.195312 44.523438 33.625 43.722656 33.859375 42.792969 C 35.292969 43.339844 37.121094 43.527344 37.667969 41.808594 C 38.761719 42.082031 39.894531 42.296875 40.890625 42.785156 C 41.28125 42.980469 41.679688 43.175781 42.0625 43.390625 C 42.21875 43.476562 42.375 43.566406 42.53125 43.652344 C 42.421875 43.703125 42.34375 43.820312 42.3125 43.976562 Z M 42.3125 43.976562 "/>
<path style=" stroke:none;fill-rule:nonzero;fill:rgb(0%,0%,0%);fill-opacity:1;" d="M 27.527344 27.414062 C 26.601562 27.078125 26.816406 25.398438 26.816406 24.640625 C 26.828125 23.125 26.5625 21.621094 26.6875 20.097656 C 26.746094 19.367188 25.625 19.140625 25.554688 19.882812 C 25.410156 21.609375 25.671875 23.328125 25.664062 25.058594 C 25.652344 26.21875 25.691406 27.976562 27.011719 28.445312 C 27.703125 28.691406 28.222656 27.65625 27.527344 27.414062 Z M 33.085938 18.78125 C 32.128906 18.078125 30.871094 18.164062 30.078125 19.082031 C 29.601562 19.648438 30.457031 20.398438 30.9375 19.84375 C 31.09375 19.65625 31.289062 19.550781 31.484375 19.5 C 31.269531 20.476562 32.265625 21.570312 33.242188 21.035156 C 34.257812 20.488281 33.828125 19.328125 33.085938 18.78125 Z M 22.773438 20.046875 C 22.351562 18.476562 20.632812 18.457031 19.34375 18.808594 C 18.679688 18.996094 18.964844 19.921875 19.578125 19.921875 L 19.785156 19.921875 C 19.941406 19.921875 20.070312 19.875 20.148438 19.785156 C 20.351562 19.746094 20.554688 19.71875 20.761719 19.726562 C 20.398438 20.226562 20.390625 21.027344 20.878906 21.484375 C 21.289062 21.867188 21.992188 21.945312 22.441406 21.582031 C 22.929688 21.210938 22.921875 20.585938 22.773438 20.046875 Z M 28.625 31.210938 C 28.28125 31.445312 27.902344 31.757812 27.480469 31.828125 C 27.121094 31.894531 26.398438 31.652344 26.242188 31.28125 C 25.957031 30.59375 24.875 30.976562 25.15625 31.660156 C 25.460938 32.390625 26.261719 32.804688 27.011719 32.960938 C 27.859375 33.125 28.59375 32.609375 29.257812 32.15625 C 29.882812 31.757812 29.238281 30.800781 28.625 31.210938 Z M 28.625 31.210938 "/>
</g>
</svg>
